<?xml version="1.0" encoding="iso-8859-1"?>
<!-- Generator: Adobe Illustrator 28.6.0, SVG Export Plug-In . SVG Version: 9.03 Build 54939)  -->
<svg version="1.1" id="Layer_1" xmlns="http://www.w3.org/2000/svg" xmlns:xlink="http://www.w3.org/1999/xlink" x="0px" y="0px"
	 width="48px" height="48px" viewBox="0 0 48 48" style="enable-background:new 0 0 48 48;" xml:space="preserve">
<style type="text/css">
	.st0{fill:#074390;}
	.st1{fill:#F78E1E;}
	.st2{font-family:'Impact';}
	.st3{font-size:19.8056px;}
</style>
<polygon class="st0" points="24,2.2 27.2,9 33,4.2 33,11.7 40.3,10 37,16.8 44.3,18.4 38.4,23 44.3,27.7 37,29.3 40.3,36 33,34.3 
	33,41.8 27.2,37.1 24,43.9 20.8,37.1 15,41.8 15,34.3 7.7,36 11,29.3 3.7,27.7 9.6,23 3.7,18.4 11,16.8 7.7,10 15,11.7 15,4.2 
	20.8,9 "/>
<text transform="matrix(0.9526 -0.2732 -0.1339 0.991 5.3952 35.0474)" class="st1 st2 st3">NEW</text>
</svg>
