<?xml version="1.0" encoding="UTF-8"?>
<svg id="Layer_1" xmlns="http://www.w3.org/2000/svg" version="1.1" viewBox="0 0 48 48">
  <!-- Generator: Adobe Illustrator 29.8.3, SVG Export Plug-In . SVG Version: 2.1.1 Build 3)  -->
  <defs>
    <style>
      .st0 {
        display: none;
        fill: #292b6b;
      }

      .st1 {
        fill: #fff;
      }

      .st2 {
        fill: #f29100;
      }
    </style>
  </defs>
  <rect class="st0" x="-53.11" width="48" height="48"/>
  <g>
    <path class="st2" d="M-306.76-5.25h-15.94c-1.12-2.28-2.59-4.36-4.38-6.16-4.2-4.19-9.91-6.75-16.31-6.75-6.39,0-12.11,2.57-16.3,6.75-1.95,1.96-3.55,4.25-4.7,6.78v-22.19c6.02-3.99,13.26-6.33,21-6.33,10.48,0,20.04,4.27,26.9,11.14,4.57,4.56,7.95,10.33,9.73,16.75"/>
    <path class="st1" d="M-321.95,13.37c-1.17,2.95-2.91,5.61-5.13,7.83-4.2,4.18-9.91,6.75-16.31,6.75-4.68,0-8.99-1.38-12.62-3.76-1.33-.87-2.56-1.87-3.68-2.99-.14-.14-.27-.29-.41-.43-3.94-4.15-6.34-9.7-6.34-15.87h0c0-.07,0-.13,0-.19h0v-37.85h-9.86c-4.76.16-5.01,5.69-5.01,5.69h0c-.03,10.54-.1,32.05-.1,32.34h0c0,10.48,4.27,20.04,11.14,26.9,1.17,1.17,2.42,2.26,3.74,3.27.13.1.26.21.39.31.34.25.68.49,1.03.73.16.11.31.22.47.33.26.17.52.34.78.5.25.16.5.33.76.49.18.11.36.21.54.31.35.2.7.41,1.05.61.15.08.31.16.47.24.39.2.78.41,1.17.6.12.06.24.11.36.16.44.21.88.41,1.33.6.11.05.23.09.34.14.46.19.92.37,1.39.55.09.03.19.06.29.1.49.18.98.35,1.48.5.14.05.29.08.44.13.45.13.91.27,1.37.39.13.03.26.06.39.09.48.12.97.24,1.46.34.06.01.13.02.19.03.56.11,1.12.21,1.68.3.08.01.17.02.26.03.55.08,1.09.15,1.64.21.09,0,.18.01.27.02.55.05,1.11.1,1.66.13.12,0,.25,0,.37.01.53.02,1.05.04,1.59.04.53,0,1.05-.02,1.58-.04.13,0,.25,0,.38-.01.56-.03,1.12-.07,1.67-.13.09,0,.17-.01.25-.02.57-.06,1.14-.13,1.71-.22.06,0,.13-.01.19-.02.61-.09,1.23-.2,1.83-.33.01,0,.03,0,.04,0,.55-.11,1.09-.24,1.63-.38.07-.02.14-.03.21-.05.55-.14,1.09-.3,1.63-.46.06-.02.12-.03.18-.05,1.18-.37,2.33-.79,3.45-1.26.01,0,.03-.01.04-.02.54-.23,1.07-.47,1.6-.72.03-.01.06-.02.09-.04.55-.26,1.08-.54,1.61-.83,0,0,.02,0,.03-.01.5-.27.99-.56,1.48-.85.04-.02.08-.04.12-.07.39-.24.78-.49,1.16-.74.13-.08.26-.16.39-.25.48-.32.95-.66,1.41-1,.03-.02.05-.04.08-.06.46-.35.92-.7,1.36-1.07.02-.02.05-.04.07-.06.25-.21.49-.42.73-.63.67-.59,1.33-1.19,1.97-1.82,2.7-2.7,5-5.82,6.79-9.25.26-.49.5-.99.74-1.49,0-.01.01-.03.02-.04.36-.77.68-1.56.99-2.36.66-1.71,1.21-3.47,1.63-5.29h-15.63Z"/>
    <g>
      <polygon class="st1" points="-414.67 57.93 -418.93 57.93 -418.93 83.4 -401.83 83.4 -401.83 79.52 -414.67 79.52 -414.67 57.93"/>
      <rect class="st1" x="-397.24" y="64.97" width="4.26" height="18.42"/>
      <rect class="st1" x="-397.41" y="57.93" width="4.57" height="4.05"/>
      <polygon class="st1" points="-371.34 64.97 -376.47 64.97 -384.11 73.14 -384.11 57.93 -388.37 57.93 -388.37 83.4 -384.11 83.4 -384.11 78.13 -381.53 75.44 -375.98 83.4 -371.1 83.4 -378.67 72.48 -371.34 64.97"/>
      <path class="st1" d="M-354.33,67.56c-.73-.91-1.65-1.63-2.76-2.16-1.11-.53-2.39-.8-3.86-.8-1.33,0-2.54.26-3.63.77-1.09.51-2.04,1.2-2.84,2.08-.8.87-1.43,1.89-1.87,3.05-.44,1.16-.66,2.41-.66,3.73,0,1.44.24,2.75.73,3.92.49,1.17,1.16,2.18,2.01,3.02.85.84,1.85,1.49,3,1.95,1.15.47,2.39.7,3.72.7,1.7,0,3.16-.31,4.38-.94,1.22-.63,2.27-1.47,3.16-2.51l-2.48-2.2c-.75.72-1.5,1.27-2.27,1.64-.77.37-1.67.56-2.72.56-1.37,0-2.54-.4-3.49-1.2s-1.56-1.96-1.81-3.47h13.54c.02-.21.04-.41.05-.59.01-.19.02-.37.02-.56,0-1.33-.19-2.59-.56-3.8-.37-1.21-.92-2.27-1.66-3.18ZM-365.76,72.89c.19-1.44.7-2.61,1.55-3.51.85-.89,1.92-1.34,3.23-1.34.7,0,1.32.13,1.87.38.55.26,1.02.6,1.41,1.03.39.43.71.94.94,1.53.23.59.38,1.23.45,1.9h-9.46Z"/>
      <path class="st1" d="M-332.06,79.02c-1.07.57-2.35.85-3.84.85-1.16,0-2.24-.23-3.23-.68-.99-.45-1.84-1.07-2.56-1.87-.72-.79-1.28-1.72-1.67-2.78-.4-1.06-.59-2.19-.59-3.4s.2-2.34.59-3.38c.39-1.05.95-1.96,1.67-2.74.72-.78,1.58-1.39,2.56-1.85.99-.45,2.06-.68,3.23-.68,1.39,0,2.64.28,3.73.84,1.09.56,2.13,1.29,3.11,2.2l2.76-3.17c-.58-.56-1.2-1.07-1.85-1.53-.65-.47-1.36-.87-2.13-1.2s-1.61-.6-2.53-.79c-.92-.19-1.94-.28-3.05-.28-1.86,0-3.56.33-5.09.99s-2.86,1.57-3.98,2.72c-1.12,1.15-1.98,2.5-2.6,4.03-.62,1.53-.93,3.18-.93,4.92s.31,3.42.94,4.95c.63,1.53,1.49,2.87,2.6,4,1.1,1.13,2.41,2.02,3.92,2.67,1.51.65,3.16.98,4.95.98,1.14,0,2.18-.1,3.12-.3.94-.2,1.81-.49,2.6-.87.79-.38,1.53-.84,2.22-1.36.69-.52,1.34-1.12,1.97-1.8l-2.76-2.79c-1.05.98-2.1,1.75-3.17,2.32Z"/>
      <path class="st1" d="M-309.48,67.84c-.67-.86-1.51-1.61-2.51-2.27-1-.65-2.25-.98-3.76-.98-1.09,0-2.15.21-3.18.63-1.03.42-1.94,1.04-2.73,1.87-.79.83-1.42,1.83-1.9,3.02-.48,1.19-.71,2.55-.71,4.08s.24,2.9.73,4.08c.49,1.19,1.13,2.19,1.92,3.02.79.83,1.69,1.45,2.71,1.87,1.02.42,2.08.63,3.17.63,1.48,0,2.73-.34,3.74-1.01,1.01-.67,1.85-1.49,2.52-2.44v3.07h4.26v-18.42h-4.26v2.86ZM-309.84,76.63c-.29.72-.68,1.34-1.17,1.87-.49.52-1.05.93-1.7,1.2-.65.28-1.32.42-2.02.42s-1.4-.14-2.03-.42c-.64-.28-1.2-.67-1.69-1.19-.49-.51-.87-1.13-1.15-1.87-.28-.73-.42-1.55-.42-2.46s.14-1.76.42-2.49c.28-.73.66-1.35,1.15-1.87.49-.51,1.05-.9,1.69-1.17.64-.27,1.32-.4,2.03-.4s1.37.14,2.02.42c.65.28,1.22.68,1.7,1.2.49.52.88,1.15,1.17,1.87.29.72.43,1.53.43,2.44s-.14,1.72-.43,2.44Z"/>
      <path class="st1" d="M-295.7,69.13v-4.15h-4.26v18.42h4.26v-7.01c0-1.21.15-2.27.45-3.19.3-.92.73-1.68,1.29-2.28.56-.6,1.22-1.06,1.99-1.36.77-.3,1.62-.45,2.55-.45h.24v-4.46c-1.63-.07-2.98.31-4.05,1.15-1.07.84-1.9,1.95-2.48,3.35Z"/>
      <path class="st1" d="M-273.08,57.93v9.91c-.67-.86-1.51-1.61-2.51-2.27-1-.65-2.25-.98-3.76-.98-1.09,0-2.15.21-3.18.63-1.03.42-1.94,1.04-2.73,1.87-.79.83-1.42,1.83-1.9,3.02-.48,1.19-.71,2.55-.71,4.08s.24,2.9.73,4.08c.49,1.19,1.13,2.19,1.92,3.02.79.83,1.69,1.45,2.71,1.87,1.02.42,2.08.63,3.17.63,1.48,0,2.73-.34,3.74-1.01,1.01-.67,1.85-1.49,2.52-2.44v3.07h4.26v-25.47h-4.26ZM-273.45,76.63c-.29.72-.68,1.34-1.17,1.87-.49.52-1.05.93-1.7,1.2-.65.28-1.32.42-2.02.42s-1.4-.14-2.04-.42c-.64-.28-1.2-.67-1.69-1.19-.49-.51-.87-1.13-1.15-1.87-.28-.73-.42-1.55-.42-2.46s.14-1.76.42-2.49c.28-.73.66-1.35,1.15-1.87.49-.51,1.05-.9,1.69-1.17.64-.27,1.32-.4,2.04-.4s1.37.14,2.02.42c.65.28,1.22.68,1.7,1.2.49.52.88,1.15,1.17,1.87.29.72.43,1.53.43,2.44s-.15,1.72-.43,2.44Z"/>
    </g>
    <g>
      <path class="st2" d="M-415.79,91.47h-3.19v12.39h1.28v-5.36h1.78c1.2,0,2.19-.3,2.95-.91.78-.59,1.18-1.46,1.19-2.61-.06-2.34-1.4-3.51-4.01-3.51ZM-413.35,96.3c-.2.33-.48.58-.84.75-.36.15-.76.25-1.21.3-.45.06-.92.09-1.41.09h-.89v-4.9h2.08c1.68.02,2.54.84,2.56,2.45,0,.54-.1.98-.3,1.31Z"/>
      <rect class="st2" x="-409.83" y="90.55" width="1.17" height="13.31"/>
      <path class="st2" d="M-399.21,97.97c.02-2.27-1.08-3.4-3.32-3.37-.98.02-1.91.23-2.78.62v1.08c.88-.51,1.81-.76,2.78-.75,1.47,0,2.19.77,2.15,2.32v.46h-.22c-.62,0-1.26.02-1.93.05-.68.06-1.31.19-1.89.39-.58.19-1.06.5-1.43.94-.38.44-.57,1.04-.57,1.79-.03.46.16.99.56,1.58.22.27.54.5.97.67.41.19.94.29,1.6.3.62-.01,1.21-.16,1.76-.44s.97-.69,1.24-1.22h.04v1.45h1.15c-.07-.58-.11-1.21-.09-1.9v-3.99ZM-400.38,99.85c0,.24-.01.54-.04.91-.03.35-.13.72-.32,1.08-.17.34-.45.64-.84.89-.4.26-.93.39-1.62.39-.54,0-1-.13-1.37-.39-.4-.25-.59-.66-.59-1.24,0-.5.14-.89.43-1.19.26-.3.61-.51,1.04-.66.43-.15.92-.25,1.45-.3.51-.02,1.01-.04,1.52-.04h.33v.55Z"/>
      <path class="st2" d="M-393.77,102.35h-.02l-2.66-7.54h-1.28l3.36,9.16-.24.8c-.16.59-.37,1.06-.61,1.4-.25.37-.61.56-1.09.57-.2,0-.37-.02-.5-.05-.14-.02-.26-.05-.37-.09l-.11.96c.41.09.83.14,1.26.14.33-.01.63-.09.89-.23.26-.13.48-.31.67-.55.37-.49.66-1.05.87-1.7l3.79-10.4h-1.23l-2.73,7.54Z"/>
      <polygon class="st2" points="-376.17 102.37 -380.9 91.47 -382.89 91.47 -382.89 103.86 -381.6 103.86 -381.6 92.7 -381.57 92.7 -376.7 103.86 -375.61 103.86 -370.89 92.7 -370.85 92.7 -370.85 103.86 -369.57 103.86 -369.57 91.47 -371.41 91.47 -376.17 102.37"/>
      <path class="st2" d="M-362.81,94.6c-1.51.02-2.62.5-3.34,1.44-.72.91-1.08,2.01-1.08,3.3s.36,2.36,1.08,3.28c.72.95,1.83,1.43,3.34,1.45,1.53-.02,2.66-.51,3.38-1.45.69-.92,1.04-2.02,1.04-3.28s-.35-2.39-1.04-3.3c-.72-.93-1.85-1.41-3.38-1.44ZM-360.46,102c-.54.73-1.33,1.11-2.36,1.12-1.03-.01-1.8-.38-2.32-1.12-.54-.7-.82-1.59-.82-2.66s.27-1.98.82-2.7c.52-.71,1.29-1.07,2.32-1.08,1.03.01,1.81.37,2.36,1.08.52.72.78,1.62.78,2.7s-.26,1.96-.78,2.66Z"/>
      <path class="st2" d="M-354.11,95.18c-.41.38-.72.83-.95,1.37h-.04v-1.74h-1.17c.05.51.07,1.18.07,2.02v7.03h1.17v-4.47c0-.41.04-.84.13-1.28.07-.41.2-.8.37-1.15.19-.37.43-.66.72-.87.3-.2.67-.31,1.13-.32.31,0,.59.03.85.11v-1.17c-.24-.06-.51-.09-.82-.11-.59.01-1.09.21-1.49.59Z"/>
      <path class="st2" d="M-347.05,94.6c-1.21.01-2.17.45-2.88,1.31-.73.88-1.1,2.02-1.11,3.42-.01,1.38.32,2.51.98,3.37.67.89,1.78,1.34,3.32,1.37.94-.01,1.86-.18,2.75-.5v-1.14c-.3.17-.7.31-1.21.44-.51.15-.99.23-1.45.23-1.03-.01-1.8-.35-2.32-1.03-.53-.64-.8-1.45-.8-2.43h6.48v-.57c0-1.25-.29-2.31-.87-3.16-.61-.86-1.57-1.31-2.9-1.33ZM-349.76,98.7c0-.79.25-1.51.76-2.15.49-.64,1.17-.97,2.02-.99.87.02,1.49.35,1.87.98.36.61.54,1.34.54,2.16h-5.2Z"/>
      <rect class="st2" x="-340.7" y="102.37" width="1.5" height="1.49"/>
      <rect class="st2" x="-335.54" y="102.37" width="1.5" height="1.49"/>
      <path class="st2" d="M-327.41,91.47h-3.19v12.39h1.28v-5.36h1.78c1.2,0,2.19-.3,2.95-.91.78-.59,1.18-1.46,1.19-2.61-.06-2.34-1.4-3.51-4.01-3.51ZM-324.97,96.3c-.2.33-.48.58-.84.75-.36.15-.76.25-1.21.3-.45.06-.92.09-1.41.09h-.89v-4.9h2.08c1.68.02,2.54.84,2.56,2.45,0,.54-.1.98-.3,1.31Z"/>
      <path class="st2" d="M-314.95,97.97c.02-2.27-1.08-3.4-3.32-3.37-.98.02-1.91.23-2.78.62v1.08c.88-.51,1.81-.76,2.78-.75,1.47,0,2.19.77,2.15,2.32v.46h-.22c-.62,0-1.26.02-1.93.05-.68.06-1.31.19-1.89.39-.58.19-1.06.5-1.43.94-.38.44-.57,1.04-.57,1.79-.03.46.16.99.56,1.58.22.27.55.5.97.67.41.19.94.29,1.6.3.62-.01,1.21-.16,1.77-.44.56-.28.97-.69,1.24-1.22h.04v1.45h1.15c-.07-.58-.11-1.21-.09-1.9v-3.99ZM-316.12,99.85c0,.24-.01.54-.04.91-.03.35-.13.72-.32,1.08-.17.34-.45.64-.83.89-.4.26-.94.39-1.62.39-.54,0-1-.13-1.37-.39-.4-.25-.59-.66-.59-1.24,0-.5.14-.89.43-1.19.26-.3.61-.51,1.04-.66.43-.15.92-.25,1.45-.3.51-.02,1.01-.04,1.52-.04h.33v.55Z"/>
      <path class="st2" d="M-309.51,102.35h-.02l-2.66-7.54h-1.28l3.36,9.16-.24.8c-.16.59-.37,1.06-.61,1.4-.25.37-.61.56-1.09.57-.2,0-.37-.02-.5-.05-.14-.02-.26-.05-.37-.09l-.11.96c.41.09.83.14,1.26.14.33-.01.63-.09.89-.23.26-.13.48-.31.67-.55.37-.49.66-1.05.87-1.7l3.79-10.4h-1.23l-2.73,7.54Z"/>
      <polygon class="st2" points="-297.46 91.47 -298.74 91.47 -298.74 103.86 -292.26 103.86 -292.26 102.8 -297.46 102.8 -297.46 91.47"/>
      <path class="st2" d="M-287.23,94.6c-1.21.01-2.17.45-2.88,1.31-.73.88-1.1,2.02-1.11,3.42-.01,1.38.32,2.51.98,3.37.67.89,1.78,1.34,3.32,1.37.94-.01,1.86-.18,2.75-.5v-1.14c-.3.17-.7.31-1.21.44-.51.15-.99.23-1.45.23-1.03-.01-1.8-.35-2.32-1.03-.53-.64-.8-1.45-.8-2.43h6.48v-.57c0-1.25-.29-2.31-.87-3.16-.61-.86-1.57-1.31-2.9-1.33ZM-289.94,98.7c0-.79.25-1.51.76-2.15.49-.64,1.17-.97,2.02-.99.87.02,1.49.35,1.88.98.36.61.54,1.34.54,2.16h-5.2Z"/>
      <path class="st2" d="M-278.43,98.79c-.27-.14-.55-.27-.84-.39-.29-.13-.54-.25-.76-.37-.22-.13-.4-.27-.54-.43-.14-.17-.2-.34-.2-.53,0-.31.06-.56.17-.75.1-.19.24-.34.43-.44.36-.21.84-.32,1.45-.32.72.01,1.42.15,2.1.43l.11-.98c-.42-.15-.85-.27-1.28-.34-.43-.05-.79-.07-1.06-.07-.8,0-1.51.18-2.12.55-.63.38-.95,1.02-.97,1.92,0,.32.07.6.2.83.14.25.31.47.52.66.23.18.48.34.74.48.26.14.53.28.82.41.61.24,1.13.5,1.58.8.45.31.67.73.69,1.26-.01.51-.22.9-.61,1.17-.41.3-.9.44-1.49.44-.93-.01-1.75-.2-2.47-.57l-.11,1.1c.85.28,1.74.43,2.65.43.78,0,1.52-.2,2.21-.59.32-.2.59-.47.8-.8.2-.32.3-.72.3-1.19-.01-.73-.25-1.31-.71-1.72-.46-.41-1-.75-1.61-.99Z"/>
      <path class="st2" d="M-269.59,99.78c-.46-.41-1-.75-1.62-.99-.27-.14-.55-.27-.84-.39-.29-.13-.54-.25-.76-.37-.22-.13-.4-.27-.54-.43-.14-.17-.2-.34-.2-.53,0-.31.06-.56.17-.75.1-.19.24-.34.43-.44.36-.21.84-.32,1.45-.32.72.01,1.42.15,2.1.43l.11-.98c-.42-.15-.85-.27-1.28-.34-.43-.05-.79-.07-1.06-.07-.8,0-1.51.18-2.12.55-.63.38-.95,1.02-.97,1.92,0,.32.07.6.2.83.14.25.31.47.52.66.23.18.48.34.74.48.26.14.53.28.82.41.61.24,1.13.5,1.58.8.45.31.67.73.69,1.26-.01.51-.22.9-.61,1.17-.41.3-.9.44-1.49.44-.93-.01-1.75-.2-2.47-.57l-.11,1.1c.85.28,1.74.43,2.65.43.78,0,1.52-.2,2.21-.59.32-.2.59-.47.8-.8.2-.32.3-.72.3-1.19-.01-.73-.25-1.31-.71-1.72Z"/>
    </g>
  </g>
  <g>
    <path d="M-103.32,173.4h-4.51c1.64-1.05,3.14-2.24,4.32-3.53.02-.02.04-.05.06-.07.02-.02.04-.05.06-.07,0,0,0,0,0,0,.02-.02.04-.05.06-.07.02-.02.04-.05.06-.07.02-.02.04-.05.06-.07.04-.05.08-.1.12-.15.04-.05.08-.1.12-.15.06-.07.12-.15.17-.22.04-.06.09-.11.13-.17.03-.04.06-.09.1-.13.07-.1.14-.2.21-.3.03-.05.07-.1.1-.15.03-.05.07-.1.1-.15.11-.18.22-.36.32-.54.06-.1.11-.2.16-.31,0,0,0,0,0,0,.1-.21.2-.42.28-.63h0c.02-.05.04-.1.06-.16,0,0,0,0,0,0,.03-.08.06-.16.08-.24,0-.03.02-.06.03-.08,0-.03.02-.05.03-.08.02-.05.03-.11.05-.16,0-.03.02-.05.02-.08.01-.05.03-.11.04-.16,0,0,0,0,0,0,0-.03.01-.05.02-.08,0-.03.01-.05.02-.08,0-.03.01-.05.02-.08,0-.03.01-.05.02-.08,0-.03.01-.05.02-.08,0-.03.01-.06.02-.09,0-.02,0-.05.01-.07,0-.05.01-.1.02-.14,0-.02,0-.04,0-.06,0,0,0-.01,0-.02,0-.02,0-.04,0-.07,0-.02,0-.04,0-.05,0-.02,0-.04,0-.06,0-.02,0-.03,0-.04,0-.03,0-.07,0-.1,0-.02,0-.04,0-.06,0-.03,0-.05,0-.08,0-.1,0-.21,0-.31,0-.04,0-.08,0-.12,0-.03,0-.05,0-.08,0-.06,0-.12,0-.18,0-.02,0-.03,0-.05,0-.02,0-.04,0-.05,0-.07-.01-.14-.02-.21,0-.02,0-.05,0-.07,0-.03,0-.06-.01-.09,0-.03,0-.06-.01-.09,0-.06-.02-.11-.02-.17,0,0,0-.02,0-.02,0-.03,0-.06-.01-.08,0-.03-.01-.06-.02-.09,0-.03-.01-.06-.02-.09,0-.03-.01-.06-.02-.09-.01-.06-.03-.12-.04-.19,0-.03-.01-.05-.02-.08-.02-.09-.05-.18-.08-.27,0-.02-.02-.05-.02-.07,0-.03-.02-.06-.03-.08,0-.03-.02-.06-.03-.08-.04-.11-.08-.22-.13-.33-.02-.05-.04-.1-.07-.15-.01-.03-.03-.06-.04-.09-.01-.03-.03-.05-.04-.08-.01-.03-.03-.05-.04-.08-.01-.03-.03-.05-.04-.08-.01-.03-.03-.05-.04-.08-.04-.08-.09-.15-.13-.23-.02-.02-.03-.05-.05-.07-.02-.02-.03-.05-.05-.07-1.37-2.13-4.02-3.41-7.22-3.41-4.27,0-8.26,2.9-9.23,6.55v1.31h5.49c.37-1.75,1.59-2.93,3.46-2.93s3.12,1.06,3.12,2.65c0,3.8-7.79,8.14-11.44,9.41v3.87h17.3v-1.14c-1.22-.92-2.2-2.08-2.91-3.48Z"/>
    <path d="M-82.71,167.57c0-.86-.08-1.68-.22-2.45,0-.05-.02-.09-.03-.14,0-.05-.02-.09-.03-.14,0-.04-.02-.08-.02-.11,0-.02,0-.04-.01-.05,0-.04-.02-.08-.03-.11,0-.03-.02-.06-.02-.09,0-.01,0-.03-.01-.04,0-.03-.01-.06-.02-.08,0-.01,0-.03-.01-.04,0-.03-.02-.06-.02-.09,0-.02,0-.03-.01-.04,0-.02-.01-.05-.02-.07,0-.02-.01-.05-.02-.07,0,0,0-.02,0-.03,0-.03-.02-.06-.03-.09-.02-.08-.05-.16-.07-.23-.01-.04-.02-.07-.04-.11-.04-.13-.09-.26-.14-.39,0,0,0-.02,0-.02-.01-.03-.02-.06-.04-.09,0,0,0,0,0,0-.02-.04-.03-.08-.05-.12-.02-.04-.03-.08-.05-.12,0,0,0,0,0,0-.02-.04-.03-.08-.05-.11-.02-.04-.03-.07-.05-.11,0,0,0-.01,0-.02-.02-.03-.03-.07-.05-.1-.01-.03-.03-.06-.04-.08,0-.02-.02-.04-.03-.05-.01-.03-.02-.05-.04-.08-.02-.04-.04-.08-.06-.12,0-.02-.02-.03-.02-.05-.01-.03-.03-.05-.04-.08-.02-.03-.03-.06-.05-.1,0,0,0,0,0,0-.02-.04-.04-.07-.06-.1-.02-.04-.04-.07-.06-.11-.02-.03-.03-.06-.05-.09,0-.01-.01-.02-.02-.04-.04-.07-.08-.13-.12-.19-.02-.03-.04-.07-.07-.1-.02-.03-.04-.07-.07-.1,0,0,0,0,0,0-.02-.03-.05-.07-.07-.1-.05-.07-.09-.13-.14-.2-.02-.03-.05-.07-.07-.1-1.81-2.41-4.65-3.79-7.99-3.79-3.04,0-5.66,1.13-7.46,3.14.17.26.32.53.46.82.46.97.7,2.05.7,3.18,0,1.84-.73,3.7-2.18,5.52-.35.44-.73.87-1.16,1.3.16.6.36,1.17.61,1.7.73,1.61,1.83,2.91,3.2,3.86,1.62,1.12,3.62,1.72,5.84,1.72,2.51,0,4.74-.78,6.46-2.2v-2.4l.52-.18c.61-.22,1.33-.51,2.09-.87.64-1.44,1-3.11,1-4.97ZM-92.78,173.28c-2.84,0-4.68-2.12-4.68-5.7s1.84-5.67,4.68-5.67,4.68,2.12,4.68,5.67-1.84,5.7-4.68,5.7Z"/>
    <path d="M-70.35,173.4h-4.43c1.61-1.03,3.08-2.2,4.25-3.46.02-.02.04-.05.07-.07.02-.02.04-.05.06-.07.02-.02.04-.04.05-.06.07-.08.14-.16.21-.24.02-.02.04-.04.05-.06.02-.02.03-.04.05-.05.02-.03.04-.05.07-.08.04-.05.09-.11.13-.16.1-.12.19-.25.28-.37.02-.02.04-.05.05-.07.02-.02.04-.05.05-.07.02-.02.04-.05.05-.08.02-.02.03-.05.05-.08.02-.02.03-.05.05-.07,0,0,0,0,0,0,.02-.02.03-.05.05-.07.02-.03.03-.05.05-.08.02-.03.03-.05.05-.08.02-.03.03-.05.05-.08t0,0c.05-.08.09-.15.14-.23.03-.05.06-.1.09-.15.03-.05.05-.1.08-.15.02-.03.03-.06.05-.09.03-.05.05-.1.08-.16.03-.05.05-.1.08-.16.09-.18.17-.36.24-.55h0c.02-.05.04-.1.06-.16,0,0,0,0,0,0,.03-.08.06-.16.08-.24,0-.03.02-.06.03-.08,0-.03.02-.05.03-.08.02-.05.03-.11.05-.16,0-.03.02-.05.02-.08.01-.05.03-.11.04-.16,0,0,0,0,0,0,0-.03.01-.05.02-.08,0-.03.01-.05.02-.08,0-.03.01-.05.02-.08,0-.03.01-.05.02-.08,0-.03.01-.05.02-.08,0-.03.01-.06.02-.09,0-.02,0-.05.01-.07,0-.05.01-.1.02-.14,0-.02,0-.04,0-.06,0,0,0-.01,0-.02,0-.02,0-.04,0-.07,0-.02,0-.04,0-.05,0-.02,0-.04,0-.06,0-.02,0-.03,0-.04,0-.03,0-.07,0-.1,0-.02,0-.04,0-.06,0-.03,0-.05,0-.08,0-.1,0-.21,0-.31,0-.04,0-.08,0-.12,0-.03,0-.05,0-.08,0-.06,0-.12,0-.19,0-.02,0-.03,0-.05,0-.05,0-.1,0-.14,0-.04,0-.08-.01-.13,0-.06-.01-.11-.02-.17,0-.03,0-.06-.01-.09,0-.06-.02-.11-.02-.17,0,0,0-.01,0-.02-.02-.12-.04-.24-.07-.36-.01-.06-.03-.12-.04-.19,0-.03-.01-.05-.02-.08-.03-.1-.05-.19-.08-.29,0-.02-.01-.04-.02-.06,0-.03-.02-.06-.03-.08-.02-.05-.04-.11-.06-.16,0-.02-.02-.04-.03-.07-.04-.1-.08-.19-.12-.28-.02-.05-.04-.1-.07-.15h0s-.03-.06-.05-.1c0,0,0,0,0-.01-.01-.03-.03-.05-.04-.08-.01-.03-.03-.05-.04-.08,0-.02-.02-.03-.02-.05-.01-.03-.03-.05-.04-.08-.01-.02-.02-.04-.03-.06,0,0,0-.02-.01-.03,0-.02-.02-.03-.03-.04-.01-.02-.02-.04-.04-.06,0,0,0-.01-.01-.02,0-.02-.02-.03-.03-.05,0-.02-.02-.03-.03-.05-.02-.03-.04-.06-.06-.09-1.39-2.08-4.01-3.33-7.17-3.33-2.79,0-5.46,1.24-7.25,3.12.59.79,1.08,1.67,1.44,2.63.26.67.45,1.38.59,2.11h1.48c.37-1.75,1.59-2.93,3.46-2.93s3.12,1.06,3.12,2.65c0,3.09-5.14,6.53-9.02,8.39-.9.43-1.73.78-2.42,1.02v3.87h17.3v-1c-1.25-.93-2.27-2.16-2.99-3.62Z"/>
    <path d="M-59.95,161.9c1.78,0,3.24.72,3.68,2.21h5.49v-1.31c-1.37-3.74-4.58-5.83-9.17-5.83-2.93,0-5.41,1.12-7.12,3.08.19.28.35.57.49.87.46.97.7,2.05.7,3.18,0,1.84-.73,3.7-2.18,5.52-.36.45-.75.89-1.19,1.32.15.59.34,1.14.57,1.67.73,1.68,1.85,3.04,3.27,3.99,1.52,1.02,3.37,1.59,5.46,1.59,4.93,0,9.01-2.9,9.01-6.83s-3.18-6.67-7.98-6.67c-2.06,0-4.24.53-5.61,1.4.25-2.87,2-4.21,4.58-4.21ZM-60.16,168.69c2.12,0,3.8.87,3.83,2.31,0,1.43-1.68,2.31-3.8,2.31s-3.74-.87-3.74-2.31,1.59-2.31,3.71-2.31Z"/>
  </g>
  <g>
    <path class="st2" d="M13.74,27.47h-2.69c.98-.63,1.87-1.34,2.57-2.11.01-.01.03-.03.04-.04.01-.01.02-.03.04-.04,0,0,0,0,0,0,.01-.01.02-.03.04-.04.01-.01.03-.03.04-.04.01-.01.03-.03.04-.04.02-.03.05-.06.07-.09.02-.03.05-.06.07-.09.04-.04.07-.09.1-.13.03-.03.05-.07.08-.1.02-.03.04-.05.06-.08.04-.06.09-.12.13-.18.02-.03.04-.06.06-.09.02-.03.04-.06.06-.09.07-.11.13-.21.19-.32.03-.06.07-.12.1-.18,0,0,0,0,0,0,.06-.12.12-.25.17-.37h0s.02-.06.04-.09c0,0,0,0,0,0,.02-.05.03-.09.05-.14,0-.02.01-.03.02-.05,0-.02.01-.03.02-.05,0-.03.02-.06.03-.1,0-.02,0-.03.01-.05,0-.03.02-.06.03-.1,0,0,0,0,0,0,0-.02,0-.03.01-.05,0-.02,0-.03.01-.05,0-.02,0-.03.01-.05,0-.02,0-.03,0-.05,0-.02,0-.03,0-.05,0-.02,0-.04,0-.05,0-.01,0-.03,0-.04,0-.03,0-.06.01-.08,0-.01,0-.02,0-.03,0,0,0,0,0,0,0-.01,0-.03,0-.04,0-.01,0-.02,0-.03,0-.01,0-.02,0-.03,0,0,0-.02,0-.03,0-.02,0-.04,0-.06,0-.01,0-.02,0-.04,0-.02,0-.03,0-.05,0-.06,0-.12,0-.19,0-.02,0-.05,0-.07,0-.02,0-.03,0-.05,0-.04,0-.07,0-.11,0,0,0-.02,0-.03,0-.01,0-.02,0-.03,0-.04,0-.09-.01-.13,0-.01,0-.03,0-.04,0-.02,0-.04,0-.06,0-.02,0-.04,0-.06,0-.03,0-.07-.01-.1,0,0,0,0,0-.01,0-.02,0-.03,0-.05,0-.02,0-.04-.01-.05,0-.02,0-.04-.01-.05,0-.02,0-.04-.01-.05,0-.04-.02-.07-.03-.11,0-.02,0-.03-.01-.05-.01-.05-.03-.11-.05-.16,0-.01,0-.03-.01-.04,0-.02-.01-.03-.02-.05,0-.02-.01-.03-.02-.05-.02-.07-.05-.13-.08-.2-.01-.03-.03-.06-.04-.09,0-.02-.02-.04-.03-.05,0-.02-.02-.03-.02-.05,0-.02-.02-.03-.02-.05,0-.02-.02-.03-.02-.05,0-.02-.02-.03-.02-.05-.03-.05-.05-.09-.08-.14,0-.01-.02-.03-.03-.04,0-.01-.02-.03-.03-.04-.82-1.27-2.4-2.04-4.31-2.04-2.55,0-4.93,1.73-5.5,3.9v.78h3.27c.22-1.04.95-1.75,2.06-1.75s1.86.63,1.86,1.58c0,2.27-4.65,4.85-6.82,5.61v2.31h10.32v-.68c-.73-.55-1.31-1.24-1.74-2.07Z"/>
    <path class="st2" d="M25.45,23.99c0-.51-.05-1-.13-1.46,0-.03-.01-.05-.02-.08,0-.03-.01-.05-.02-.08,0-.02,0-.05-.01-.07,0-.01,0-.02,0-.03,0-.02-.01-.05-.02-.07,0-.02,0-.04-.01-.06,0,0,0-.02,0-.03,0-.02,0-.03-.01-.05,0,0,0-.02,0-.02,0-.02,0-.03-.01-.05,0,0,0-.02,0-.03,0-.01,0-.03-.01-.04,0-.01,0-.03-.01-.04,0,0,0-.01,0-.02,0-.02-.01-.04-.02-.05-.01-.05-.03-.09-.04-.14,0-.02-.01-.04-.02-.07-.03-.08-.05-.15-.08-.23,0,0,0,0,0-.01,0-.02-.01-.04-.02-.06,0,0,0,0,0,0,0-.02-.02-.05-.03-.07,0-.02-.02-.05-.03-.07,0,0,0,0,0,0,0-.02-.02-.05-.03-.07,0-.02-.02-.04-.03-.07,0,0,0,0,0-.01,0-.02-.02-.04-.03-.06,0-.02-.02-.03-.02-.05,0-.01-.01-.02-.02-.03,0-.02-.01-.03-.02-.05-.01-.02-.02-.05-.04-.07,0,0,0-.02-.01-.03,0-.02-.02-.03-.03-.05-.01-.02-.02-.04-.03-.06,0,0,0,0,0,0-.01-.02-.02-.04-.03-.06-.01-.02-.02-.04-.04-.06-.01-.02-.02-.04-.03-.05,0,0,0-.01-.01-.02-.02-.04-.05-.08-.07-.12-.01-.02-.03-.04-.04-.06-.01-.02-.03-.04-.04-.06,0,0,0,0,0,0-.01-.02-.03-.04-.04-.06-.03-.04-.06-.08-.08-.12-.01-.02-.03-.04-.04-.06-1.08-1.44-2.77-2.26-4.76-2.26-1.81,0-3.37.67-4.45,1.87.1.16.19.32.27.49.28.58.42,1.22.42,1.9,0,1.1-.44,2.2-1.3,3.29-.21.26-.44.52-.69.77.1.36.22.69.36,1.01.44.96,1.09,1.74,1.91,2.3.97.66,2.16,1.03,3.48,1.03,1.5,0,2.83-.47,3.85-1.31v-1.43l.31-.11c.37-.13.79-.31,1.24-.52.38-.86.6-1.85.6-2.97ZM19.44,27.39c-1.69,0-2.79-1.26-2.79-3.4s1.1-3.38,2.79-3.38,2.79,1.26,2.79,3.38-1.1,3.4-2.79,3.4Z"/>
    <path class="st2" d="M32.32,27.47h-2.64c.96-.62,1.84-1.31,2.53-2.06.01-.01.03-.03.04-.04.01-.01.03-.03.04-.04.01-.01.02-.02.03-.03.04-.05.08-.09.12-.14.01-.01.02-.03.03-.04,0-.01.02-.02.03-.03.01-.02.03-.03.04-.05.03-.03.05-.06.08-.09.06-.07.11-.15.17-.22.01-.01.02-.03.03-.04.01-.01.02-.03.03-.04.01-.01.02-.03.03-.04.01-.01.02-.03.03-.04,0-.01.02-.03.03-.04,0,0,0,0,0,0,0-.01.02-.03.03-.04.01-.02.02-.03.03-.05,0-.02.02-.03.03-.05,0-.02.02-.03.03-.05t0,0s.06-.09.08-.14c.02-.03.04-.06.05-.09.02-.03.03-.06.05-.09,0-.02.02-.03.03-.05.02-.03.03-.06.05-.09.02-.03.03-.06.05-.09.05-.11.1-.22.15-.33h0s.02-.06.04-.09c0,0,0,0,0,0,.02-.05.03-.09.05-.14,0-.02.01-.03.02-.05,0-.02.01-.03.02-.05,0-.03.02-.06.03-.1,0-.02,0-.03.01-.05,0-.03.02-.06.03-.1,0,0,0,0,0,0,0-.02,0-.03.01-.05,0-.02,0-.03.01-.05,0-.02,0-.03.01-.05,0-.02,0-.03,0-.05,0-.02,0-.03,0-.05,0-.02,0-.04,0-.05,0-.01,0-.03,0-.04,0-.03,0-.06.01-.08,0-.01,0-.02,0-.03,0,0,0,0,0,0,0-.01,0-.03,0-.04,0-.01,0-.02,0-.03,0-.01,0-.02,0-.03,0,0,0-.02,0-.03,0-.02,0-.04,0-.06,0-.01,0-.02,0-.04,0-.02,0-.03,0-.05,0-.06,0-.12,0-.19,0-.02,0-.05,0-.07,0-.02,0-.03,0-.05,0-.04,0-.07,0-.11,0,0,0-.02,0-.03,0-.03,0-.06,0-.08,0-.03,0-.05,0-.08,0-.03,0-.07-.01-.1,0-.02,0-.04,0-.06,0-.03,0-.07-.01-.1,0,0,0,0,0-.01-.01-.07-.03-.14-.04-.21,0-.04-.02-.07-.03-.11,0-.02,0-.03-.01-.05-.02-.06-.03-.11-.05-.17,0-.01,0-.02-.01-.04,0-.02-.01-.03-.02-.05-.01-.03-.02-.06-.03-.09,0-.01,0-.03-.02-.04-.02-.06-.05-.11-.07-.17-.01-.03-.03-.06-.04-.09h0s-.02-.04-.03-.06c0,0,0,0,0,0,0-.02-.02-.03-.02-.05,0-.02-.02-.03-.02-.04,0,0,0-.02-.01-.03,0-.02-.02-.03-.03-.05,0-.01-.01-.02-.02-.03,0,0,0-.01,0-.02,0,0-.01-.02-.02-.03,0-.01-.01-.02-.02-.04,0,0,0,0,0-.01,0,0-.01-.02-.02-.03,0,0-.01-.02-.02-.03-.01-.02-.02-.03-.03-.05-.83-1.24-2.39-1.99-4.27-1.99-1.66,0-3.26.74-4.32,1.86.35.47.64.99.86,1.57.15.4.27.82.35,1.26h.88c.22-1.04.95-1.75,2.06-1.75s1.86.63,1.86,1.58c0,1.84-3.06,3.89-5.38,5.01-.54.26-1.03.47-1.44.61v2.31h10.32v-.59c-.74-.55-1.35-1.29-1.78-2.16Z"/>
    <path class="st2" d="M37.75,20.61c1.06,0,1.93.43,2.19,1.32h3.27v-.78c-.82-2.23-2.73-3.48-5.47-3.48-1.75,0-3.22.67-4.25,1.84.11.17.21.34.29.52.28.58.42,1.22.42,1.9,0,1.1-.44,2.2-1.3,3.29-.21.27-.45.53-.71.79.09.35.2.68.34,1,.44,1,1.1,1.81,1.95,2.38.9.61,2.01.95,3.26.95,2.94,0,5.37-1.73,5.37-4.07s-1.9-3.98-4.76-3.98c-1.23,0-2.53.32-3.35.84.15-1.71,1.19-2.51,2.73-2.51ZM37.62,24.66c1.26,0,2.27.52,2.29,1.38,0,.86-1,1.38-2.27,1.38s-2.23-.52-2.23-1.38.95-1.38,2.21-1.38Z"/>
  </g>
</svg>