<svg width="49" height="48" viewBox="0 0 49 48" fill="none" xmlns="http://www.w3.org/2000/svg">
<path d="M14.2396 17.625C13.5041 17.625 12.7851 17.4069 12.1736 16.9983C11.5621 16.5897 11.0854 16.0089 10.8039 15.3294C10.5225 14.6498 10.4488 13.9021 10.5923 13.1808C10.7358 12.4594 11.09 11.7968 11.6101 11.2767C12.1301 10.7566 12.7928 10.4024 13.5141 10.259C14.2355 10.1155 14.9832 10.1891 15.6627 10.4706C16.3422 10.752 16.923 11.2287 17.3317 11.8402C17.7403 12.4518 17.9584 13.1708 17.9584 13.9063C17.9573 14.8922 17.5652 15.8375 16.868 16.5346C16.1708 17.2318 15.2256 17.6239 14.2396 17.625ZM24.3334 17.625C23.5979 17.625 22.8789 17.4069 22.2673 16.9983C21.6558 16.5897 21.1792 16.0089 20.8977 15.3294C20.6162 14.6498 20.5426 13.9021 20.6861 13.1808C20.8296 12.4594 21.1837 11.7968 21.7038 11.2767C22.2239 10.7566 22.8865 10.4024 23.6079 10.259C24.3293 10.1155 25.077 10.1891 25.7565 10.4706C26.436 10.752 27.0168 11.2287 27.4254 11.8402C27.834 12.4518 28.0521 13.1708 28.0521 13.9063C28.0511 14.8922 27.6589 15.8375 26.9618 16.5346C26.2646 17.2318 25.3193 17.6239 24.3334 17.625ZM34.4271 17.625C33.6916 17.625 32.9726 17.4069 32.3611 16.9983C31.7496 16.5897 31.2729 16.0089 30.9914 15.3294C30.71 14.6498 30.6363 13.9021 30.7798 13.1808C30.9233 12.4594 31.2775 11.7968 31.7976 11.2767C32.3176 10.7566 32.9803 10.4024 33.7016 10.259C34.423 10.1155 35.1707 10.1891 35.8502 10.4706C36.5297 10.752 37.1105 11.2287 37.5192 11.8402C37.9278 12.4518 38.1459 13.1708 38.1459 13.9063C38.1448 14.8922 37.7527 15.8375 37.0555 16.5346C36.3583 17.2318 35.4131 17.6239 34.4271 17.625ZM14.2396 27.7188C13.5041 27.7188 12.7851 27.5007 12.1736 27.092C11.5621 26.6834 11.0854 26.1026 10.8039 25.4231C10.5225 24.7436 10.4488 23.9959 10.5923 23.2745C10.7358 22.5531 11.09 21.8905 11.6101 21.3704C12.1301 20.8504 12.7928 20.4962 13.5141 20.3527C14.2355 20.2092 14.9832 20.2829 15.6627 20.5643C16.3422 20.8458 16.923 21.3224 17.3317 21.934C17.7403 22.5455 17.9584 23.2645 17.9584 24C17.9573 24.986 17.5652 25.9312 16.868 26.6284C16.1708 27.3256 15.2256 27.7177 14.2396 27.7188ZM24.3334 27.7188C23.5979 27.7188 22.8789 27.5007 22.2673 27.092C21.6558 26.6834 21.1792 26.1026 20.8977 25.4231C20.6162 24.7436 20.5426 23.9959 20.6861 23.2745C20.8296 22.5531 21.1837 21.8905 21.7038 21.3704C22.2239 20.8504 22.8865 20.4962 23.6079 20.3527C24.3293 20.2092 25.077 20.2829 25.7565 20.5643C26.436 20.8458 27.0168 21.3224 27.4254 21.934C27.834 22.5455 28.0521 23.2645 28.0521 24C28.0511 24.986 27.6589 25.9312 26.9618 26.6284C26.2646 27.3256 25.3193 27.7177 24.3334 27.7188ZM34.4271 27.7188C33.6916 27.7188 32.9726 27.5007 32.3611 27.092C31.7496 26.6834 31.2729 26.1026 30.9914 25.4231C30.71 24.7436 30.6363 23.9959 30.7798 23.2745C30.9233 22.5531 31.2775 21.8905 31.7976 21.3704C32.3176 20.8504 32.9803 20.4962 33.7016 20.3527C34.423 20.2092 35.1707 20.2829 35.8502 20.5643C36.5297 20.8458 37.1105 21.3224 37.5192 21.934C37.9278 22.5455 38.1459 23.2645 38.1459 24C38.1448 24.986 37.7527 25.9312 37.0555 26.6284C36.3583 27.3256 35.4131 27.7177 34.4271 27.7188ZM14.2396 37.8125C13.5041 37.8125 12.7851 37.5944 12.1736 37.1858C11.5621 36.7772 11.0854 36.1964 10.8039 35.5169C10.5225 34.8373 10.4488 34.0896 10.5923 33.3683C10.7358 32.6469 11.09 31.9843 11.6101 31.4642C12.1301 30.9441 12.7928 30.5899 13.5141 30.4465C14.2355 30.303 14.9832 30.3766 15.6627 30.6581C16.3422 30.9395 16.923 31.4162 17.3317 32.0277C17.7403 32.6393 17.9584 33.3583 17.9584 34.0938C17.9573 35.0797 17.5652 36.025 16.868 36.7221C16.1708 37.4193 15.2256 37.8114 14.2396 37.8125ZM24.3334 37.8125C23.5979 37.8125 22.8789 37.5944 22.2673 37.1858C21.6558 36.7772 21.1792 36.1964 20.8977 35.5169C20.6162 34.8373 20.5426 34.0896 20.6861 33.3683C20.8296 32.6469 21.1837 31.9843 21.7038 31.4642C22.2239 30.9441 22.8865 30.5899 23.6079 30.4465C24.3293 30.303 25.077 30.3766 25.7565 30.6581C26.436 30.9395 27.0168 31.4162 27.4254 32.0277C27.834 32.6393 28.0521 33.3583 28.0521 34.0938C28.0511 35.0797 27.6589 36.025 26.9618 36.7221C26.2646 37.4193 25.3193 37.8114 24.3334 37.8125ZM34.4271 37.8125C33.6916 37.8125 32.9726 37.5944 32.3611 37.1858C31.7496 36.7772 31.2729 36.1964 30.9914 35.5169C30.71 34.8373 30.6363 34.0896 30.7798 33.3683C30.9233 32.6469 31.2775 31.9843 31.7976 31.4642C32.3176 30.9441 32.9803 30.5899 33.7016 30.4465C34.423 30.303 35.1707 30.3766 35.8502 30.6581C36.5297 30.9395 37.1105 31.4162 37.5192 32.0277C37.9278 32.6393 38.1459 33.3583 38.1459 34.0938C38.1448 35.0797 37.7527 36.025 37.0555 36.7221C36.3583 37.4193 35.4131 37.8114 34.4271 37.8125Z" fill="#FE8D2A"/>
</svg>
