<svg width="29" height="25" viewBox="0 0 29 25" fill="none" xmlns="http://www.w3.org/2000/svg">
<g filter="url(#filter0_ddd_20004424_6542)">
<mask id="path-1-outside-1_20004424_6542" maskUnits="userSpaceOnUse" x="3" y="2" width="23" height="19" fill="black">
<rect fill="white" x="3" y="2" width="23" height="19"/>
<path fill-rule="evenodd" clip-rule="evenodd" d="M5 9.42606L8.13274 4H20.6637L23.7964 9.42606H5ZM14.3982 18.8246L23.7964 9.42637H5L14.3982 18.8246Z"/>
</mask>
<path fill-rule="evenodd" clip-rule="evenodd" d="M5 9.42606L8.13274 4H20.6637L23.7964 9.42606H5ZM14.3982 18.8246L23.7964 9.42637H5L14.3982 18.8246Z" fill="white"/>
<path d="M8.13274 4V2.04C7.4325 2.04 6.78545 2.41357 6.43533 3.02L8.13274 4ZM5 9.42606L3.30259 8.44606C2.95247 9.05249 2.95247 9.79963 3.30259 10.4061C3.65271 11.0125 4.29976 11.3861 5 11.3861V9.42606ZM20.6637 4L22.3611 3.02C22.011 2.41357 21.3639 2.04 20.6637 2.04V4ZM23.7964 9.42606V11.3861C24.4967 11.3861 25.1437 11.0125 25.4938 10.4061C25.844 9.79963 25.844 9.05249 25.4938 8.44606L23.7964 9.42606ZM23.7964 9.42637L25.1824 10.8123C25.7429 10.2517 25.9106 9.40871 25.6072 8.67631C25.3039 7.94391 24.5892 7.46637 23.7964 7.46637V9.42637ZM14.3982 18.8246L13.0123 20.2105C13.3799 20.5781 13.8784 20.7846 14.3982 20.7846C14.918 20.7846 15.4166 20.5781 15.7841 20.2105L14.3982 18.8246ZM5 9.42637V7.46637C4.20725 7.46637 3.49257 7.94391 3.1892 8.67631C2.88583 9.40871 3.05351 10.2517 3.61407 10.8123L5 9.42637ZM6.43533 3.02L3.30259 8.44606L6.69741 10.4061L9.83015 4.98L6.43533 3.02ZM20.6637 2.04H8.13274V5.96H20.6637V2.04ZM25.4938 8.44606L22.3611 3.02L18.9663 4.98L22.099 10.4061L25.4938 8.44606ZM5 11.3861H23.7964V7.46606H5V11.3861ZM22.4105 8.04044L13.0123 17.4387L15.7841 20.2105L25.1824 10.8123L22.4105 8.04044ZM5 11.3864H23.7964V7.46637H5V11.3864ZM15.7841 17.4387L6.38593 8.04044L3.61407 10.8123L13.0123 20.2105L15.7841 17.4387Z" fill="white" mask="url(#path-1-outside-1_20004424_6542)"/>
</g>
<path fill-rule="evenodd" clip-rule="evenodd" d="M14.3982 18.8245L23.7964 9.42627H5L14.3982 18.8245Z" fill="url(#paint0_linear_20004424_6542)"/>
<path fill-rule="evenodd" clip-rule="evenodd" d="M14.3984 18.8245L11.2656 9.42627H17.5311L14.3984 18.8245Z" fill="url(#paint1_linear_20004424_6542)"/>
<path d="M8.13274 4L5 9.42606H23.7964L20.6637 4H8.13274Z" fill="url(#paint2_linear_20004424_6542)"/>
<path d="M8.13274 4.00001L11.2655 9.42608H5L8.13274 4.00001Z" fill="url(#paint3_linear_20004424_6542)"/>
<path d="M14.3984 4.00001L17.5311 9.42608H11.2656L14.3984 4.00001Z" fill="url(#paint4_linear_20004424_6542)"/>
<path d="M20.663 4.00001L23.7957 9.42608H17.5303L20.663 4.00001Z" fill="url(#paint5_linear_20004424_6542)"/>
<defs>
<filter id="filter0_ddd_20004424_6542" x="0.343743" y="0.691891" width="28.1094" height="24.1372" filterUnits="userSpaceOnUse" color-interpolation-filters="sRGB">
<feFlood flood-opacity="0" result="BackgroundImageFix"/>
<feColorMatrix in="SourceAlpha" type="matrix" values="0 0 0 0 0 0 0 0 0 0 0 0 0 0 0 0 0 0 127 0" result="hardAlpha"/>
<feOffset/>
<feGaussianBlur stdDeviation="0.168519"/>
<feComposite in2="hardAlpha" operator="out"/>
<feColorMatrix type="matrix" values="0 0 0 0 0 0 0 0 0 0 0 0 0 0 0 0 0 0 0.06 0"/>
<feBlend mode="normal" in2="BackgroundImageFix" result="effect1_dropShadow_20004424_6542"/>
<feColorMatrix in="SourceAlpha" type="matrix" values="0 0 0 0 0 0 0 0 0 0 0 0 0 0 0 0 0 0 127 0" result="hardAlpha"/>
<feOffset dx="0.337037" dy="0.337037"/>
<feGaussianBlur stdDeviation="0.337037"/>
<feComposite in2="hardAlpha" operator="out"/>
<feColorMatrix type="matrix" values="0 0 0 0 0 0 0 0 0 0 0 0 0 0 0 0 0 0 0.08 0"/>
<feBlend mode="normal" in2="effect1_dropShadow_20004424_6542" result="effect2_dropShadow_20004424_6542"/>
<feColorMatrix in="SourceAlpha" type="matrix" values="0 0 0 0 0 0 0 0 0 0 0 0 0 0 0 0 0 0 127 0" result="hardAlpha"/>
<feOffset dy="1.34815"/>
<feGaussianBlur stdDeviation="1.34815"/>
<feComposite in2="hardAlpha" operator="out"/>
<feColorMatrix type="matrix" values="0 0 0 0 0 0 0 0 0 0 0 0 0 0 0 0 0 0 0.12 0"/>
<feBlend mode="normal" in2="effect2_dropShadow_20004424_6542" result="effect3_dropShadow_20004424_6542"/>
<feBlend mode="normal" in="SourceGraphic" in2="effect3_dropShadow_20004424_6542" result="shape"/>
</filter>
<linearGradient id="paint0_linear_20004424_6542" x1="14.3982" y1="18.8245" x2="14.3982" y2="9.42627" gradientUnits="userSpaceOnUse">
<stop stop-color="#878787"/>
<stop offset="1" stop-color="#1F1F1F"/>
</linearGradient>
<linearGradient id="paint1_linear_20004424_6542" x1="17.5311" y1="18.8245" x2="17.5311" y2="9.42627" gradientUnits="userSpaceOnUse">
<stop stop-color="#878787"/>
<stop offset="1" stop-color="#4E4E4E"/>
</linearGradient>
<linearGradient id="paint2_linear_20004424_6542" x1="23.7964" y1="9.42606" x2="23.7964" y2="4" gradientUnits="userSpaceOnUse">
<stop stop-color="white"/>
<stop offset="1" stop-color="#A8A8A8"/>
</linearGradient>
<linearGradient id="paint3_linear_20004424_6542" x1="7.08849" y1="9.42606" x2="7.08849" y2="4.90434" gradientUnits="userSpaceOnUse">
<stop stop-color="#818181"/>
<stop offset="1" stop-color="#A0A0A0"/>
</linearGradient>
<linearGradient id="paint4_linear_20004424_6542" x1="13.3541" y1="9.42606" x2="13.3541" y2="4.90434" gradientUnits="userSpaceOnUse">
<stop stop-color="#818181"/>
<stop offset="1" stop-color="#A0A0A0"/>
</linearGradient>
<linearGradient id="paint5_linear_20004424_6542" x1="19.6188" y1="9.42606" x2="19.6188" y2="4.90434" gradientUnits="userSpaceOnUse">
<stop stop-color="#818181"/>
<stop offset="1" stop-color="#A0A0A0"/>
</linearGradient>
</defs>
</svg>
