<svg width="48" height="48" viewBox="0 0 48 48" fill="none" xmlns="http://www.w3.org/2000/svg">
<path d="M36.6666 11.3333H11.3333C10.4934 11.3333 9.68799 11.667 9.09412 12.2608C8.50026 12.8547 8.16663 13.6602 8.16663 14.5V33.5C8.16663 34.3399 8.50026 35.1453 9.09412 35.7392C9.68799 36.333 10.4934 36.6667 11.3333 36.6667H23.4933C23.3191 35.875 23.2083 35.0833 23.2083 34.2917C23.2083 31.5621 24.2926 28.9444 26.2227 27.0144C28.1527 25.0843 30.7704 24 33.5 24C35.875 24 38.0916 24.8392 39.8333 26.2167V14.5C39.8333 12.7425 38.4241 11.3333 36.6666 11.3333ZM36.6666 22.4167H11.3333V17.6667H36.6666V22.4167ZM37.9808 29.8108L39.8333 27.9583V34.2917H33.5L36.3025 31.4892C35.7322 30.9187 35.0012 30.5361 34.2075 30.3925C33.4137 30.2489 32.5951 30.3513 31.8611 30.6859C31.1271 31.0205 30.5129 31.5713 30.1006 32.2646C29.6884 32.958 29.4978 33.7607 29.5544 34.5654C29.611 35.37 29.9121 36.1382 30.4173 36.767C30.9226 37.3958 31.6078 37.8552 32.3814 38.0837C33.155 38.3123 33.9799 38.2991 34.7458 38.0458C35.5116 37.7925 36.1818 37.3114 36.6666 36.6667H39.3741C38.9026 37.8379 38.091 38.841 37.044 39.5465C35.997 40.2521 34.7625 40.6277 33.5 40.625C30.0008 40.625 27.1666 37.7908 27.1666 34.2917C27.1666 30.7925 30.0008 27.9583 33.5 27.9583C35.2575 27.9583 36.8408 28.6708 37.9808 29.8108Z" fill="#FE8D2A"/>
</svg>
