<svg width="50" height="30" viewBox="0 0 50 30" fill="none" xmlns="http://www.w3.org/2000/svg">
<g clip-path="url(#clip0_132_1419)">
<path d="M46 0H4C1.79086 0 0 1.79086 0 4V26C0 28.2091 1.79086 30 4 30H46C48.2091 30 50 28.2091 50 26V4C50 1.79086 48.2091 0 46 0Z" fill="white"/>
<path d="M46 0.25H4C1.92893 0.25 0.25 1.92893 0.25 4V26C0.25 28.0711 1.92893 29.75 4 29.75H46C48.0711 29.75 49.75 28.0711 49.75 26V4C49.75 1.92893 48.0711 0.25 46 0.25Z" stroke="#8A90A3" stroke-opacity="0.2" stroke-width="0.5"/>
<path d="M42.0917 20.439H7.91028C7.88638 20.4324 7.86248 20.4216 7.83786 20.4194C7.44826 20.3767 7.14266 20.1145 7.03838 19.7343C7.02679 19.6916 7.01304 19.6496 7 19.6069V9.83207C7.00724 9.81179 7.01738 9.79152 7.02245 9.77051C7.1108 9.38164 7.34543 9.13542 7.73358 9.03766C7.79224 9.02317 7.85162 9.01231 7.91028 9H42.0917C42.1156 9.00652 42.1395 9.01738 42.1642 9.02028C42.5538 9.063 42.8608 9.3266 42.9636 9.70534C42.9752 9.74807 42.989 9.79007 43.002 9.83279V19.6069C42.9948 19.6272 42.9846 19.6474 42.9796 19.6684C42.8912 20.0573 42.6566 20.3035 42.2692 20.4013C42.2105 20.4158 42.1511 20.4267 42.0925 20.439H42.0917ZM28.8518 14.944C28.8431 14.944 28.8344 14.944 28.825 14.944C28.8141 14.9114 28.8033 14.8788 28.7938 14.8462C28.6258 14.2806 28.4593 13.7151 28.2898 13.1495C28.2283 12.9438 28.0769 12.8207 27.8662 12.8149C27.6373 12.8084 27.4085 12.8113 27.1797 12.8142C27.0805 12.8156 27.0319 12.8656 27.0312 12.9663C27.0312 13.017 27.0392 13.0691 27.0522 13.1183C27.0797 13.2176 27.1138 13.3153 27.1449 13.4138C27.4534 14.3748 27.7612 15.335 28.0711 16.2953C28.1414 16.514 28.2992 16.6248 28.5281 16.6262C28.67 16.6269 28.8119 16.6262 28.9539 16.6262C29.2044 16.6255 29.3601 16.514 29.4355 16.275C29.636 15.6421 29.8345 15.0084 30.0343 14.3748C30.0438 14.3444 30.0561 14.3139 30.0763 14.2589C30.0981 14.3205 30.1104 14.3531 30.1205 14.3864C30.3189 15.0164 30.5166 15.6471 30.7158 16.2772C30.7889 16.5082 30.9482 16.624 31.1908 16.6248C31.3292 16.6248 31.4682 16.6248 31.6065 16.6248C31.8542 16.624 32.0062 16.5169 32.083 16.2808C32.3691 15.3944 32.6544 14.5073 32.939 13.6202C33.0013 13.4268 33.0672 13.2342 33.1164 13.038C33.1548 12.8844 33.0882 12.8127 32.931 12.812C32.7442 12.8113 32.5566 12.812 32.3698 12.812C32.0714 12.812 31.9273 12.9214 31.8426 13.2074C31.6963 13.702 31.5507 14.1966 31.4037 14.6912C31.3784 14.776 31.3509 14.8607 31.3241 14.9447C31.285 14.8926 31.2676 14.839 31.2517 14.7854C31.0895 14.2314 30.9287 13.6774 30.765 13.1241C30.7013 12.9091 30.5688 12.8127 30.345 12.812C30.1712 12.812 29.9967 12.812 29.8229 12.812C29.5745 12.812 29.4507 12.9025 29.379 13.1444C29.2783 13.4812 29.1813 13.8186 29.0828 14.1561C29.006 14.4182 28.9285 14.6804 28.8511 14.9432L28.8518 14.944ZM25.5945 16.3206C25.5995 16.3518 25.6032 16.3641 25.6039 16.3764C25.6155 16.5683 25.6763 16.6262 25.8682 16.6262C26.055 16.6262 26.2419 16.6269 26.4294 16.6262C26.5996 16.6255 26.6691 16.556 26.6699 16.3843C26.6699 15.6587 26.6699 14.9331 26.6699 14.2082C26.6699 13.9692 26.6264 13.7397 26.5178 13.5253C26.3165 13.1263 25.971 12.9206 25.5532 12.8156C25.1694 12.7193 24.7798 12.7295 24.3894 12.7606C24.1085 12.7831 23.8326 12.8301 23.5726 12.946C23.2554 13.0872 23.062 13.3189 23.036 13.6752C23.0229 13.8555 23.1048 13.9519 23.2836 13.9533C23.435 13.954 23.5871 13.9533 23.7384 13.9533C23.8992 13.9533 24.0317 13.8968 24.1396 13.7744C24.1852 13.7223 24.2432 13.676 24.304 13.6426C24.4626 13.5543 24.6393 13.5297 24.8182 13.5304C25.2679 13.5333 25.4504 13.7027 25.4981 14.1467C25.5076 14.2379 25.4815 14.2654 25.391 14.2647C25.0332 14.2611 24.6755 14.2625 24.317 14.2633C24.044 14.2633 23.7768 14.3038 23.5226 14.4066C23.0512 14.5978 22.7803 14.9346 22.7651 15.4574C22.7514 15.9223 23.0027 16.3098 23.4618 16.5227C23.7116 16.6385 23.9781 16.6834 24.2504 16.6965C24.6719 16.7167 25.0716 16.6393 25.4373 16.4177C25.4858 16.388 25.5344 16.3575 25.5952 16.3206H25.5945ZM38.8272 16.3402C38.7772 16.5371 38.7099 16.7131 38.581 16.8587C38.439 17.0187 38.2602 17.0738 38.0487 17.0412C37.9024 17.0187 37.7554 17.0013 37.6077 16.9955C37.4701 16.9905 37.3919 17.0745 37.3883 17.2106C37.3854 17.3236 37.3868 17.4366 37.3883 17.5495C37.389 17.7031 37.452 17.7885 37.6077 17.8044C37.9118 17.8356 38.2174 17.8711 38.5223 17.874C39.0242 17.879 39.4051 17.6458 39.639 17.2041C39.7664 16.9637 39.8794 16.7088 39.954 16.4481C40.2748 15.3191 40.5797 14.1865 40.8889 13.0546C40.9316 12.8982 40.865 12.8142 40.6999 12.8135C40.4841 12.8127 40.2676 12.8127 40.0518 12.8135C39.8917 12.8135 39.7831 12.896 39.7382 13.0488C39.7165 13.1227 39.6962 13.198 39.6759 13.2726C39.4804 13.9808 39.2841 14.6891 39.0908 15.3988C39.0698 15.4762 39.0343 15.4951 38.9597 15.4777C38.8373 15.4494 38.7425 15.3828 38.6657 15.2865C38.523 15.1062 38.4376 14.8969 38.371 14.6811C38.2044 14.1452 38.0436 13.6079 37.88 13.0713C37.8278 12.9011 37.7127 12.8142 37.5382 12.8135C37.3187 12.8127 37.0993 12.812 36.8806 12.8135C36.7278 12.8149 36.6641 12.9011 36.709 13.0488C36.89 13.6506 37.0682 14.2538 37.2557 14.8535C37.3629 15.196 37.5049 15.5248 37.7279 15.8115C37.9299 16.0715 38.187 16.2431 38.5144 16.2996C38.6121 16.3163 38.7113 16.325 38.8286 16.3402H38.8272ZM19.8533 14.713H19.8475C19.8475 15.2648 19.8475 15.8159 19.8475 16.3677C19.8475 16.5625 19.9134 16.6269 20.1103 16.6269C20.3232 16.6269 20.5362 16.6269 20.7491 16.6269C20.9518 16.6269 21.0148 16.5632 21.0148 16.3612C21.0148 15.6935 21.0163 15.0258 21.0134 14.3581C21.0134 14.269 21.0402 14.2423 21.1285 14.243C21.4928 14.2473 21.8578 14.2459 22.222 14.2444C22.3763 14.2444 22.4545 14.1669 22.4581 14.0134C22.461 13.8975 22.4595 13.781 22.4581 13.6651C22.4574 13.4754 22.3907 13.4102 22.2003 13.4102C21.8425 13.4102 21.4841 13.4073 21.1263 13.4116C21.0358 13.4124 21.0047 13.3805 21.0134 13.2936C21.0228 13.1973 21.0228 13.1002 21.0344 13.0047C21.0749 12.6838 21.2046 12.5151 21.4776 12.4514C21.7622 12.3848 22.0497 12.3638 22.3408 12.4188C22.448 12.4391 22.558 12.4449 22.6674 12.4463C22.8202 12.4485 22.8991 12.3688 22.9035 12.2153C22.9064 12.1089 22.9049 12.0024 22.9035 11.8959C22.902 11.7431 22.8383 11.6628 22.6862 11.636C22.566 11.615 22.4443 11.5976 22.3219 11.5875C21.8447 11.5476 21.3682 11.5426 20.8982 11.6548C20.4681 11.7576 20.1284 11.9828 19.9822 12.4173C19.9119 12.6259 19.8641 12.8497 19.8569 13.0691C19.8395 13.6166 19.8511 14.1655 19.8511 14.7137L19.8533 14.713ZM34.7914 13.2393C34.7914 13.156 34.7928 13.0952 34.7914 13.0351C34.7871 12.8924 34.7096 12.8149 34.5669 12.8142C34.3279 12.8127 34.0897 12.8127 33.8507 12.8142C33.6957 12.8149 33.6182 12.8917 33.6182 13.0467C33.6182 14.1626 33.6182 15.2785 33.6182 16.3945C33.6182 16.5495 33.6965 16.6262 33.8507 16.6269C34.073 16.6284 34.2961 16.6269 34.5184 16.6269C34.7255 16.6269 34.7914 16.5618 34.7921 16.3561C34.7921 15.7174 34.8008 15.0787 34.7871 14.44C34.7827 14.2386 34.8457 14.1003 34.9905 13.9714C35.2266 13.7614 35.4873 13.6441 35.8096 13.676C35.9696 13.6912 36.1318 13.6941 36.2926 13.6933C36.4295 13.6926 36.5033 13.6187 36.5077 13.4826C36.5135 13.3052 36.5127 13.1278 36.5077 12.9503C36.5041 12.8222 36.4266 12.7432 36.3006 12.7418C35.8603 12.7367 35.4403 12.8135 35.063 13.0568C34.9797 13.1111 34.8979 13.1676 34.7914 13.2386V13.2393Z" fill="#FFD328"/>
<path d="M28.8518 14.944C28.9293 14.6819 29.0061 14.4197 29.0835 14.1568C29.182 13.8194 29.2791 13.4819 29.3797 13.1452C29.4514 12.9033 29.5752 12.8135 29.8236 12.8128C29.9974 12.8128 30.172 12.8128 30.3458 12.8128C30.5695 12.8128 30.7028 12.9098 30.7658 13.1249C30.9294 13.6782 31.0902 14.2321 31.2524 14.7861C31.2684 14.8397 31.2857 14.8933 31.3248 14.9455C31.3516 14.8607 31.3791 14.7767 31.4045 14.692C31.5508 14.1974 31.6971 13.7028 31.8433 13.2082C31.9281 12.9221 32.0722 12.8135 32.3705 12.8128C32.5574 12.8128 32.7449 12.8128 32.9318 12.8128C33.0896 12.8135 33.1563 12.8852 33.1172 13.0387C33.0679 13.2357 33.002 13.4276 32.9397 13.6209C32.6551 14.5081 32.3705 15.3952 32.0838 16.2815C32.0077 16.5176 31.8557 16.6248 31.6073 16.6255C31.4689 16.6255 31.3299 16.6255 31.1916 16.6255C30.949 16.6248 30.789 16.5089 30.7165 16.2779C30.5174 15.6479 30.3197 15.0171 30.1213 14.3871C30.1111 14.3538 30.0981 14.3212 30.0771 14.2597C30.0568 14.3147 30.0445 14.3444 30.0351 14.3755C29.8352 15.0092 29.6368 15.6428 29.4362 16.2757C29.3609 16.5147 29.2052 16.6262 28.9546 16.627C28.8127 16.627 28.6708 16.6277 28.5288 16.627C28.3007 16.6255 28.1428 16.514 28.0719 16.296C27.7619 15.3358 27.4542 14.3748 27.1457 13.4146C27.1138 13.3161 27.0805 13.219 27.053 13.1191C27.0392 13.0699 27.0312 13.0177 27.032 12.967C27.0327 12.8671 27.0812 12.8164 27.1804 12.8149C27.4093 12.8128 27.6381 12.8099 27.8669 12.8157C28.0777 12.8215 28.229 12.9446 28.2906 13.1502C28.4593 13.7151 28.6266 14.2814 28.7946 14.847C28.804 14.8796 28.8156 14.9121 28.8257 14.9447C28.8344 14.9447 28.8431 14.9447 28.8525 14.9447L28.8518 14.944Z" fill="#006E96"/>
<path d="M25.5945 16.3199C25.5337 16.3576 25.4852 16.3873 25.4366 16.417C25.0717 16.6386 24.6712 16.716 24.2497 16.6958C23.9782 16.6827 23.7117 16.6378 23.4611 16.522C23.0013 16.3091 22.7507 15.9216 22.7645 15.4567C22.7797 14.9339 23.0505 14.5971 23.5219 14.4059C23.7761 14.3031 24.0433 14.2633 24.3163 14.2626C24.6741 14.2618 25.0318 14.2597 25.3903 14.264C25.4815 14.2647 25.5076 14.2372 25.4975 14.146C25.4497 13.702 25.2672 13.5326 24.8175 13.5297C24.6386 13.5282 24.4619 13.5529 24.3033 13.6419C24.2425 13.676 24.1853 13.7216 24.1389 13.7737C24.031 13.8969 23.8985 13.9533 23.7377 13.9526C23.5864 13.9526 23.4343 13.9526 23.283 13.9526C23.1048 13.9519 23.0223 13.8556 23.0353 13.6745C23.0614 13.3182 23.2547 13.0858 23.5719 12.9453C23.8319 12.8294 24.1078 12.7824 24.3888 12.7599C24.7784 12.7288 25.1687 12.7186 25.5525 12.8149C25.9703 12.9199 26.3151 13.1256 26.5171 13.5246C26.6257 13.739 26.6692 13.9685 26.6692 14.2075C26.6692 14.9331 26.6692 15.6588 26.6692 16.3836C26.6692 16.5553 26.5996 16.6248 26.4287 16.6255C26.2419 16.6262 26.0551 16.6255 25.8675 16.6255C25.6756 16.6255 25.6148 16.5669 25.6032 16.3757C25.6025 16.3634 25.5996 16.3511 25.5938 16.3199H25.5945ZM24.9036 15.0505C24.9036 15.0505 24.9036 15.0541 24.9036 15.0555C24.7262 15.0555 24.5488 15.0476 24.3728 15.0577C24.1998 15.0678 24.0542 15.1417 23.9767 15.3075C23.8637 15.5509 24.005 15.8239 24.2881 15.8803C24.7168 15.9658 25.1021 15.8304 25.4634 15.6102C25.4866 15.5965 25.4996 15.5509 25.5011 15.5197C25.5054 15.3944 25.5004 15.2684 25.504 15.1431C25.5062 15.0707 25.4765 15.0476 25.4069 15.049C25.2397 15.0519 25.0717 15.0497 24.9044 15.0497L24.9036 15.0505Z" fill="#006E96"/>
<path d="M38.8279 16.3395C38.7106 16.325 38.6114 16.3163 38.5136 16.2989C38.1863 16.2424 37.9292 16.0715 37.7272 15.8108C37.5041 15.5233 37.3622 15.1953 37.255 14.8528C37.0675 14.2524 36.8893 13.6499 36.7083 13.0481C36.6641 12.9004 36.7271 12.8142 36.8799 12.8128C37.0993 12.8113 37.3187 12.8113 37.5374 12.8128C37.7112 12.8135 37.8271 12.9004 37.8792 13.0706C38.0429 13.6072 38.2037 14.1445 38.3702 14.6804C38.4376 14.8962 38.5223 15.1055 38.665 15.2858C38.7417 15.3821 38.8359 15.4487 38.959 15.477C39.0336 15.4944 39.0691 15.4755 39.0901 15.3981C39.2827 14.6891 39.4797 13.9809 39.6752 13.2719C39.6955 13.1973 39.715 13.1227 39.7375 13.0481C39.7831 12.8953 39.8917 12.8135 40.051 12.8128C40.2668 12.8121 40.4834 12.8121 40.6992 12.8128C40.8643 12.8128 40.9309 12.8975 40.8882 13.0539C40.5782 14.1858 40.2741 15.3191 39.9533 16.4474C39.8787 16.7088 39.7657 16.963 39.6383 17.2034C39.4043 17.6452 39.0234 17.8776 38.5216 17.8733C38.2167 17.8704 37.9111 17.8349 37.607 17.8037C37.4513 17.7878 37.3883 17.7024 37.3875 17.5488C37.3875 17.4359 37.3854 17.3229 37.3875 17.2099C37.3904 17.0738 37.4694 16.9898 37.607 16.9948C37.7547 17.0006 37.9017 17.018 38.048 17.0405C38.2594 17.0731 38.4383 17.018 38.5802 16.858C38.7099 16.7124 38.7765 16.5364 38.8265 16.3395H38.8279Z" fill="#006E96"/>
<path d="M19.8533 14.7123C19.8533 14.1641 19.8417 13.6152 19.8591 13.0677C19.8663 12.849 19.9141 12.6245 19.9843 12.4159C20.1306 11.9814 20.4703 11.7562 20.9004 11.6534C21.3704 11.5411 21.8469 11.5462 22.3241 11.586C22.4458 11.5962 22.5675 11.6128 22.6884 11.6346C22.8405 11.6614 22.9042 11.7417 22.9056 11.8945C22.9064 12.001 22.9078 12.1074 22.9056 12.2139C22.902 12.3674 22.8231 12.4471 22.6696 12.4449C22.5602 12.4435 22.4501 12.4377 22.343 12.4174C22.0518 12.3623 21.7636 12.3833 21.4798 12.45C21.2067 12.5144 21.0778 12.6824 21.0366 13.0032C21.0243 13.0988 21.025 13.1966 21.0156 13.2922C21.0069 13.3791 21.038 13.4117 21.1285 13.4102C21.4863 13.4059 21.8447 13.408 22.2025 13.4088C22.3929 13.4088 22.4588 13.4747 22.4603 13.6637C22.4603 13.7795 22.4624 13.8961 22.4603 14.012C22.4567 14.1655 22.3784 14.243 22.2242 14.243C21.8599 14.2445 21.495 14.2459 21.1307 14.2416C21.0424 14.2408 21.0148 14.2669 21.0156 14.3567C21.0185 15.0244 21.0177 15.6921 21.017 16.3598C21.017 16.5618 20.9533 16.6255 20.7512 16.6255C20.5383 16.6255 20.3254 16.6255 20.1125 16.6255C19.9148 16.6255 19.8496 16.5611 19.8496 16.3663C19.8496 15.8145 19.8496 15.2634 19.8496 14.7115H19.8554L19.8533 14.7123Z" fill="#006E96"/>
<path d="M34.7914 13.2386C34.8978 13.1669 34.979 13.1104 35.063 13.0568C35.4402 12.8128 35.8603 12.7367 36.3006 12.7418C36.4273 12.7433 36.5048 12.8222 36.5077 12.9504C36.512 13.1278 36.5127 13.3052 36.5077 13.4826C36.5033 13.6188 36.4295 13.6919 36.2926 13.6934C36.1318 13.6948 35.9696 13.6919 35.8096 13.676C35.4873 13.6448 35.2266 13.7622 34.9905 13.9714C34.8457 14.1004 34.782 14.2387 34.7871 14.44C34.8015 15.078 34.7921 15.7174 34.7921 16.3561C34.7921 16.5611 34.7255 16.6263 34.5184 16.627C34.2961 16.627 34.073 16.6277 33.8507 16.627C33.6965 16.6263 33.6182 16.5495 33.6182 16.3945C33.6175 15.2786 33.6182 14.1626 33.6182 13.0467C33.6182 12.8924 33.6965 12.815 33.8507 12.8142C34.0897 12.8128 34.3279 12.8128 34.5669 12.8142C34.7096 12.815 34.7871 12.8924 34.7914 13.0351C34.7936 13.0952 34.7914 13.156 34.7914 13.2393V13.2386Z" fill="#006E96"/>
<path d="M24.9037 15.0505C25.0709 15.0505 25.239 15.0526 25.4062 15.0497C25.4758 15.0483 25.5054 15.0715 25.5033 15.1439C25.4997 15.2692 25.5047 15.3952 25.5004 15.5204C25.4997 15.5516 25.4859 15.5972 25.4627 15.611C25.1014 15.8311 24.7161 15.9658 24.2874 15.8811C24.0042 15.8246 23.863 15.5523 23.976 15.3083C24.0535 15.1417 24.199 15.0686 24.3721 15.0584C24.5488 15.0483 24.7262 15.0562 24.9029 15.0562C24.9029 15.0548 24.9029 15.0526 24.9029 15.0512L24.9037 15.0505Z" fill="#FFD328"/>
<path d="M18.0327 14.684C18.0327 17.1788 16.0101 19.2021 13.5146 19.2021C13.0396 19.2021 12.5819 19.129 12.1517 18.9928C11.5043 18.7879 10.9199 18.4417 10.4347 17.9898C9.54979 17.165 8.99652 15.9897 8.99652 14.6847C8.99652 12.19 11.0191 10.1667 13.5146 10.1667C14.0548 10.1667 14.5726 10.2615 15.0527 10.4353C15.677 10.6613 16.2368 11.0205 16.6988 11.4788C17.5229 12.2972 18.0327 13.4312 18.0327 14.684V14.684Z" fill="white"/>
<path d="M15.6111 16.6024L15.0028 16.2982C15.0028 16.2982 13.965 18.1869 12.1524 18.9921C11.505 18.7872 10.9206 18.441 10.4354 17.9892C10.8323 17.9312 11.4768 17.7277 12.1546 17.0608C13.2611 15.9724 13.5153 15.3735 13.5153 15.3735L13.041 15.057C12.878 14.9484 12.9099 14.7 13.0946 14.6355L15.1816 13.9085C15.3236 13.8592 15.4749 13.9526 15.4945 14.1011L15.8044 16.4641C15.8189 16.5712 15.7074 16.6502 15.6111 16.6017V16.6024Z" fill="#006E96"/>
<path d="M16.2396 13.9867C16.1882 14.1156 15.9999 14.0967 15.9768 13.9599L15.8377 13.1597L14.8058 13.4805C14.6914 13.516 14.59 13.3987 14.6407 13.2908C14.7746 13.0047 14.976 12.5173 15.1302 11.8895C15.2765 11.2942 15.17 10.7714 15.0534 10.4346C15.6777 10.6606 16.2375 11.0198 16.6995 11.4782C16.7828 12.4254 16.4583 13.4334 16.2403 13.9867H16.2396Z" fill="#006E96"/>
</g>
<defs>
<clipPath id="clip0_132_1419">
<rect width="50" height="30" fill="white"/>
</clipPath>
</defs>
</svg>
