<?xml version="1.0" encoding="UTF-8"?><svg id="Layer_1" xmlns="http://www.w3.org/2000/svg" viewBox="0 0 48 48"><defs><style>.cls-1{fill:#010101;}.cls-1,.cls-2,.cls-3,.cls-4{stroke-width:0px;}.cls-2{fill:#ed1c24;}.cls-3{fill:#04733b;}.cls-4{fill:#fff;}</style></defs><path class="cls-2" d="M16.69,1.14v45.72C7.02,43.76,0,34.69,0,24S7.02,4.24,16.69,1.14Z"/><path class="cls-1" d="M46.63,32c-3.3,9.31-12.2,16-22.63,16-2.55,0-5-.4-7.31-1.14v-14.86h29.94Z"/><path class="cls-3" d="M46.63,16h-29.94V1.14c2.31-.74,4.76-1.14,7.31-1.14,10.43,0,19.33,6.69,22.63,16Z"/><path class="cls-4" d="M48,24c0,2.8-.48,5.5-1.37,8h-29.94v-16h29.94c.89,2.5,1.37,5.19,1.37,8Z"/></svg>