<?xml version="1.0" encoding="utf-8"?>
<!-- Generator: Adobe Illustrator 28.2.0, SVG Export Plug-In . SVG Version: 6.00 Build 0)  -->
<svg version="1.1" id="Layer_1" xmlns="http://www.w3.org/2000/svg" xmlns:xlink="http://www.w3.org/1999/xlink" x="0px" y="0px"
	 viewBox="0 0 48 48" style="enable-background:new 0 0 48 48;" xml:space="preserve">
<style type="text/css">
	.st0{fill-rule:evenodd;clip-rule:evenodd;fill:#F39200;}
</style>
<path class="st0" d="M25.7,20L32,4.3c0.1-0.2,0.1-0.5-0.1-0.7c-0.1-0.2-0.4-0.3-0.6-0.3H23c-0.3,0-0.6,0.2-0.7,0.4l-8,19.9
	c-0.1,0.2-0.1,0.5,0.1,0.7c0.1,0.2,0.4,0.3,0.6,0.3h7.3l-7.6,19c-0.1,0.3,0,0.7,0.3,0.9c0.3,0.2,0.7,0.1,0.9-0.2l17.6-23.3
	c0.2-0.2,0.2-0.5,0.1-0.7C33.5,20.1,33.2,20,33,20H25.7z"/>
</svg>
