<svg width="49" height="48" viewBox="0 0 49 48" fill="none" xmlns="http://www.w3.org/2000/svg">
<path d="M38.8229 20.0742H32.3933C31.9391 19.1501 31.3468 18.306 30.6255 17.5821C28.9345 15.8879 26.6266 14.8498 24.0486 14.8467C21.4707 14.8498 19.1658 15.8879 17.4717 17.5821C16.683 18.3738 16.0385 19.301 15.5751 20.3268V11.3442C18.0057 9.7301 20.9244 8.78133 24.0486 8.78133C28.2777 8.78133 32.1324 10.5094 34.9007 13.2911C36.7421 15.1393 38.1047 17.4743 38.8229 20.0742Z" fill="#F48320"/>
<path d="M32.6931 27.612C32.2205 28.8072 31.5177 29.8823 30.6246 30.7848C28.9305 32.4791 26.6257 33.5172 24.0477 33.5203C22.1603 33.5203 20.4201 32.9596 18.9562 31.9955C18.4222 31.6443 17.922 31.2377 17.4708 30.7848C17.4156 30.7263 17.3603 30.6678 17.3051 30.6093C15.7153 28.9273 14.7486 26.6848 14.7455 24.1835C14.7455 24.1588 14.7486 24.1311 14.7486 24.1065H14.7455V11.9357V8.78133H10.7681C8.84688 8.84602 8.7456 11.0855 8.7456 11.0855H8.74253C8.73026 15.355 8.70264 24.0603 8.70264 24.1804C8.70264 28.4222 10.4244 32.2943 13.1957 35.0697C13.6683 35.5441 14.1716 35.9846 14.7056 36.3943C14.7578 36.4344 14.81 36.4775 14.8622 36.5175C14.9972 36.6192 15.1353 36.7147 15.2765 36.8133C15.3409 36.8564 15.3992 36.9026 15.4637 36.9488C15.568 37.0196 15.6754 37.0843 15.7798 37.1521C15.8811 37.2168 15.9823 37.2846 16.0867 37.3492C16.1573 37.3924 16.234 37.4324 16.3046 37.4755C16.4458 37.5587 16.5869 37.6419 16.7281 37.722C16.7895 37.7559 16.8539 37.7867 16.9184 37.8206C17.0749 37.9037 17.2314 37.9869 17.391 38.0639C17.4371 38.0855 17.4862 38.107 17.5353 38.1286C17.7133 38.2118 17.8913 38.2949 18.0723 38.3719C18.1184 38.3904 18.1644 38.4089 18.2105 38.4274C18.3946 38.5044 18.5818 38.5783 18.769 38.6492C18.8058 38.6646 18.8457 38.6738 18.8856 38.6892C19.0821 38.7601 19.2815 38.8279 19.4841 38.8925C19.5424 38.911 19.6007 38.9264 19.6621 38.9418C19.8462 38.9973 20.0273 39.0527 20.2145 39.0989C20.2667 39.1113 20.3189 39.1236 20.371 39.1359C20.5644 39.1852 20.7608 39.2314 20.9572 39.2714C20.9818 39.2776 21.0094 39.2807 21.0339 39.2838C21.258 39.33 21.4851 39.37 21.7122 39.407C21.746 39.4131 21.7828 39.4162 21.8165 39.4193C22.0375 39.4501 22.2585 39.4809 22.4795 39.5055C22.5163 39.5086 22.55 39.5117 22.5869 39.5148C22.8109 39.5364 23.0319 39.5548 23.259 39.5672C23.3081 39.5702 23.3572 39.5702 23.4094 39.5702C23.6211 39.5795 23.836 39.5856 24.0508 39.5856C24.2656 39.5856 24.4774 39.5795 24.6891 39.5702C24.7382 39.5672 24.7904 39.5702 24.8395 39.5672C25.0666 39.5548 25.2907 39.5364 25.5147 39.5148C25.5485 39.5117 25.5822 39.5117 25.6191 39.5055C25.8492 39.4809 26.0794 39.4501 26.3096 39.4162C26.3341 39.4131 26.3618 39.4101 26.3863 39.407C26.6349 39.37 26.8804 39.3238 27.1259 39.2745C27.1321 39.2745 27.1382 39.2714 27.1413 39.2714C27.3623 39.2252 27.5802 39.1729 27.7981 39.1205C27.8257 39.1143 27.8564 39.1082 27.884 39.102C28.105 39.0435 28.3259 38.9819 28.5408 38.9141C28.5653 38.9079 28.5868 38.9018 28.6114 38.8925C29.087 38.7447 29.5505 38.5722 30.0047 38.3812C30.0108 38.3781 30.017 38.3781 30.0231 38.375C30.241 38.2826 30.4558 38.184 30.6707 38.0824C30.6829 38.0762 30.6921 38.0731 30.7044 38.067C30.9254 37.9592 31.1402 37.8483 31.3551 37.7312C31.3581 37.7281 31.3612 37.7281 31.3673 37.7251C31.5699 37.6142 31.7663 37.5002 31.9627 37.38C31.9781 37.3708 31.9934 37.3616 32.0088 37.3523C32.1683 37.2568 32.3218 37.1552 32.4752 37.0504C32.5274 37.0166 32.5796 36.9858 32.6318 36.9488C32.8251 36.8163 33.0154 36.6808 33.2026 36.5422C33.2118 36.5329 33.2241 36.5268 33.2333 36.5206C33.4205 36.382 33.6016 36.2372 33.7826 36.0863C33.7919 36.077 33.8041 36.0709 33.8133 36.0616C33.9146 35.9785 34.0097 35.8922 34.108 35.8059C34.3811 35.5688 34.645 35.3254 34.8998 35.0697C35.9923 33.9762 36.9161 32.7132 37.6373 31.3239C37.7417 31.1268 37.8399 30.9235 37.935 30.7202C37.9381 30.714 37.9412 30.7078 37.9442 30.7017C38.0885 30.3906 38.2204 30.0702 38.3432 29.7467C38.6102 29.0536 38.8312 28.339 39 27.6058H32.6931V27.612Z" fill="#F48320"/>
</svg>
