<svg width="48" height="48" viewBox="0 0 48 48" fill="none" xmlns="http://www.w3.org/2000/svg">
<g clip-path="url(#clip0_14_1448)">
<path d="M21.4888 9.769C21.6987 10.3628 21.6642 11.0156 21.3928 11.5839C21.1214 12.1522 20.6354 12.5895 20.0417 12.7995C17.9893 13.5251 16.1759 14.8009 14.7996 16.4875C13.4233 18.1741 12.537 20.2066 12.2378 22.3628C11.9385 24.519 12.2377 26.7159 13.1026 28.7136C13.9675 30.7113 15.3649 32.4327 17.1421 33.6899C18.9192 34.9471 21.0078 35.6916 23.1794 35.842C25.3511 35.9924 27.5223 35.543 29.4559 34.5428C31.3894 33.5427 33.0108 32.0303 34.1429 30.171C35.2749 28.3116 35.8741 26.1769 35.875 24C35.875 22.1 35.4317 20.3108 34.6416 18.7243C34.5027 18.445 34.4202 18.141 34.3988 17.8298C34.3773 17.5185 34.4174 17.2061 34.5167 16.9104C34.7173 16.3131 35.147 15.82 35.7111 15.5395C36.2753 15.2589 36.9278 15.214 37.5251 15.4146C38.1224 15.6152 38.6155 16.0448 38.896 16.609C40.0368 18.9056 40.6286 21.4357 40.625 24C40.625 33.1817 33.1818 40.625 24 40.625C14.8183 40.625 7.375 33.1817 7.375 24C7.375 16.7578 12.0047 10.6034 18.4583 8.32183C19.0521 8.11196 19.7049 8.14651 20.2732 8.4179C20.8415 8.68928 21.2788 9.17528 21.4888 9.769ZM24.7917 9.77217C24.7914 9.41092 24.873 9.05431 25.0303 8.72912C25.1877 8.40394 25.4166 8.11863 25.7001 7.89464C25.9835 7.67065 26.314 7.51379 26.6667 7.43586C27.0194 7.35792 27.3853 7.36093 27.7367 7.44467L27.9393 7.50325L32.6672 9.08025C33.2461 9.27316 33.7285 9.68147 34.0144 10.2205C34.3004 10.7595 34.3678 11.388 34.2029 11.9754C34.038 12.5629 33.6533 13.0643 33.1285 13.3758C32.6038 13.6872 31.9794 13.7848 31.3847 13.6482L31.1662 13.5864L29.5417 13.0449V24L29.5338 24.304C29.4731 25.408 29.0835 26.4687 28.4152 27.3495C27.7469 28.2304 26.8304 28.8912 25.7835 29.2469C24.7366 29.6027 23.6072 29.6371 22.5406 29.3459C21.4739 29.0546 20.5188 28.4509 19.7981 27.6124C19.0773 26.774 18.6238 25.739 18.4959 24.6408C18.3681 23.5425 18.5717 22.4311 19.0806 21.4495C19.5894 20.4678 20.3803 19.6609 21.3515 19.1324C22.3227 18.6038 23.4298 18.3779 24.5304 18.4837L24.7917 18.5153V9.77217Z" fill="#FE8D2A"/>
</g>
<defs>
<clipPath id="clip0_14_1448">
<rect width="38" height="38" fill="white" transform="translate(5 5)"/>
</clipPath>
</defs>
</svg>
