<svg width="48" height="48" viewBox="0 0 48 48" fill="none" xmlns="http://www.w3.org/2000/svg">
<g clip-path="url(#clip0_14_1416)">
<path d="M18.375 10C15.0929 10 11.9453 11.317 9.62455 13.6612C7.30379 16.0054 6 19.1848 6 22.5C6 25.8152 7.30379 28.9946 9.62455 31.3388C11.9453 33.683 15.0929 35 18.375 35H29.625C32.9071 35 36.0547 33.683 38.3754 31.3388C40.6962 28.9946 42 25.8152 42 22.5C42 19.1848 40.6962 16.0054 38.3754 13.6612C36.0547 11.317 32.9071 10 29.625 10H18.375ZM15 17.9545C15 17.6532 15.1185 17.3641 15.3295 17.151C15.5405 16.9379 15.8266 16.8182 16.125 16.8182C16.4234 16.8182 16.7095 16.9379 16.9205 17.151C17.1315 17.3641 17.25 17.6532 17.25 17.9545V21.3636H20.625C20.9234 21.3636 21.2095 21.4834 21.4205 21.6965C21.6315 21.9096 21.75 22.1986 21.75 22.5C21.75 22.8014 21.6315 23.0904 21.4205 23.3035C21.2095 23.5166 20.9234 23.6364 20.625 23.6364H17.25V27.0455C17.25 27.3468 17.1315 27.6359 16.9205 27.849C16.7095 28.0621 16.4234 28.1818 16.125 28.1818C15.8266 28.1818 15.5405 28.0621 15.3295 27.849C15.1185 27.6359 15 27.3468 15 27.0455V23.6364H11.625C11.3266 23.6364 11.0405 23.5166 10.8295 23.3035C10.6185 23.0904 10.5 22.8014 10.5 22.5C10.5 22.1986 10.6185 21.9096 10.8295 21.6965C11.0405 21.4834 11.3266 21.3636 11.625 21.3636H15V17.9545ZM35.25 19.0909C35.25 19.6937 35.0129 20.2718 34.591 20.698C34.169 21.1242 33.5967 21.3636 33 21.3636C32.4033 21.3636 31.831 21.1242 31.409 20.698C30.9871 20.2718 30.75 19.6937 30.75 19.0909C30.75 18.4881 30.9871 17.9101 31.409 17.4838C31.831 17.0576 32.4033 16.8182 33 16.8182C33.5967 16.8182 34.169 17.0576 34.591 17.4838C35.0129 17.9101 35.25 18.4881 35.25 19.0909ZM28.5 28.1818C27.9033 28.1818 27.331 27.9424 26.909 27.5162C26.4871 27.0899 26.25 26.5119 26.25 25.9091C26.25 25.3063 26.4871 24.7282 26.909 24.302C27.331 23.8758 27.9033 23.6364 28.5 23.6364C29.0967 23.6364 29.669 23.8758 30.091 24.302C30.5129 24.7282 30.75 25.3063 30.75 25.9091C30.75 26.5119 30.5129 27.0899 30.091 27.5162C29.669 27.9424 29.0967 28.1818 28.5 28.1818Z" fill="#FE8D2A"/>
</g>
<defs>
<clipPath id="clip0_14_1416">
<rect width="48" height="48" rx="24" fill="white"/>
</clipPath>
</defs>
</svg>
