<svg width="49" height="48" viewBox="0 0 49 48" fill="none" xmlns="http://www.w3.org/2000/svg">
<path d="M13.5833 39.8333H35.75C36.5898 39.8333 37.3953 39.4997 37.9891 38.9058C38.583 38.312 38.9166 37.5065 38.9166 36.6667V19.25C38.9166 18.8301 38.7498 18.4273 38.4529 18.1304C38.1559 17.8335 37.7532 17.6667 37.3333 17.6667H32.5833V16.4364C32.5833 12.3055 29.5702 8.60683 25.4583 8.20625C24.3577 8.09686 23.2464 8.21908 22.1958 8.56503C21.1453 8.91099 20.1788 9.47303 19.3585 10.215C18.5383 10.9569 17.8824 11.8624 17.4332 12.8731C16.9839 13.8838 16.7512 14.9773 16.75 16.0833V17.6667H12C11.58 17.6667 11.1773 17.8335 10.8804 18.1304C10.5834 18.4273 10.4166 18.8301 10.4166 19.25V36.6667C10.4166 37.5065 10.7503 38.312 11.3441 38.9058C11.938 39.4997 12.7434 39.8333 13.5833 39.8333ZM32.5833 20.8333V24H29.4166V20.8333H32.5833ZM19.9166 16.0833C19.9166 13.4645 22.0478 11.3333 24.6666 11.3333C27.2855 11.3333 29.4166 13.4645 29.4166 16.0833V17.6667H19.9166V16.0833ZM16.75 20.8333H19.9166V24H16.75V20.8333Z" fill="#FE8D2A"/>
</svg>
