<svg width="18" height="21" viewBox="0 0 18 21" fill="none" xmlns="http://www.w3.org/2000/svg">
<g filter="url(#filter0_ddd_1_5524)">
<path fill-rule="evenodd" clip-rule="evenodd" d="M9 3L14.5 9.5L9 16L3.5 9.5L9 3Z" fill="white"/>
<path d="M9.53437 2.54784C9.40137 2.39066 9.20591 2.3 9 2.3C8.79409 2.3 8.59863 2.39066 8.46563 2.54784L2.96563 9.04784C2.74479 9.30883 2.74479 9.69117 2.96563 9.95216L8.46563 16.4522C8.59863 16.6093 8.79409 16.7 9 16.7C9.20591 16.7 9.40137 16.6093 9.53437 16.4522L15.0344 9.95216C15.2552 9.69117 15.2552 9.30883 15.0344 9.04784L9.53437 2.54784Z" stroke="white" stroke-width="1.4" stroke-linejoin="round"/>
</g>
<path fill-rule="evenodd" clip-rule="evenodd" d="M9 3L14.5 9.5H3.5L9 3Z" fill="url(#paint0_linear_1_5524)"/>
<path fill-rule="evenodd" clip-rule="evenodd" d="M9 16L14.5 9.5H3.5L9 16Z" fill="url(#paint1_linear_1_5524)"/>
<path fill-rule="evenodd" clip-rule="evenodd" d="M9.00042 3L6.34863 9.5H11.6522L9.00042 3Z" fill="url(#paint2_linear_1_5524)"/>
<path fill-rule="evenodd" clip-rule="evenodd" d="M9.00042 16L6.34863 9.5H11.6522L9.00042 16Z" fill="url(#paint3_linear_1_5524)"/>
<defs>
<filter id="filter0_ddd_1_5524" x="0.174172" y="0.637013" width="17.6517" height="19.6519" filterUnits="userSpaceOnUse" color-interpolation-filters="sRGB">
<feFlood flood-opacity="0" result="BackgroundImageFix"/>
<feColorMatrix in="SourceAlpha" type="matrix" values="0 0 0 0 0 0 0 0 0 0 0 0 0 0 0 0 0 0 127 0" result="hardAlpha"/>
<feOffset/>
<feGaussianBlur stdDeviation="0.12037"/>
<feComposite in2="hardAlpha" operator="out"/>
<feColorMatrix type="matrix" values="0 0 0 0 0 0 0 0 0 0 0 0 0 0 0 0 0 0 0.04 0"/>
<feBlend mode="normal" in2="BackgroundImageFix" result="effect1_dropShadow_1_5524"/>
<feColorMatrix in="SourceAlpha" type="matrix" values="0 0 0 0 0 0 0 0 0 0 0 0 0 0 0 0 0 0 127 0" result="hardAlpha"/>
<feOffset dx="0.240741" dy="0.240741"/>
<feGaussianBlur stdDeviation="0.240741"/>
<feComposite in2="hardAlpha" operator="out"/>
<feColorMatrix type="matrix" values="0 0 0 0 0 0 0 0 0 0 0 0 0 0 0 0 0 0 0.08 0"/>
<feBlend mode="normal" in2="effect1_dropShadow_1_5524" result="effect2_dropShadow_1_5524"/>
<feColorMatrix in="SourceAlpha" type="matrix" values="0 0 0 0 0 0 0 0 0 0 0 0 0 0 0 0 0 0 127 0" result="hardAlpha"/>
<feOffset dy="0.962963"/>
<feGaussianBlur stdDeviation="0.962963"/>
<feComposite in2="hardAlpha" operator="out"/>
<feColorMatrix type="matrix" values="0 0 0 0 0 0 0 0 0 0 0 0 0 0 0 0 0 0 0.08 0"/>
<feBlend mode="normal" in2="effect2_dropShadow_1_5524" result="effect3_dropShadow_1_5524"/>
<feBlend mode="normal" in="SourceGraphic" in2="effect3_dropShadow_1_5524" result="shape"/>
</filter>
<linearGradient id="paint0_linear_1_5524" x1="3.5" y1="3" x2="3.5" y2="9.5" gradientUnits="userSpaceOnUse">
<stop stop-color="#C5C5C5"/>
<stop offset="1" stop-color="#CCCCCC"/>
</linearGradient>
<linearGradient id="paint1_linear_1_5524" x1="3.5" y1="9.5" x2="3.5" y2="16" gradientUnits="userSpaceOnUse">
<stop stop-color="#9A9A9A"/>
<stop offset="1" stop-color="#666666"/>
</linearGradient>
<linearGradient id="paint2_linear_1_5524" x1="6.34863" y1="3" x2="6.34863" y2="9.5" gradientUnits="userSpaceOnUse">
<stop stop-color="#F0F5F5"/>
<stop offset="1" stop-color="#DCDBDB"/>
</linearGradient>
<linearGradient id="paint3_linear_1_5524" x1="6.34863" y1="9.5" x2="6.34863" y2="16" gradientUnits="userSpaceOnUse">
<stop stop-color="#CCCCCC"/>
<stop offset="1" stop-color="#999999"/>
</linearGradient>
</defs>
</svg>
