<svg width="32" height="32" viewBox="0 0 32 32" fill="none" xmlns="http://www.w3.org/2000/svg">
<path d="M15.6441 7.28538C17.7161 7.28538 18.6224 8.64146 18.6956 10.7979L18.7002 11.0833V14.8359L23.0807 15.4732C23.6469 15.5555 24.1902 15.7517 24.677 16.0495C25.1639 16.3474 25.584 16.7406 25.9115 17.2052C26.2391 17.6697 26.4672 18.1956 26.5818 18.7506C26.6963 19.3056 26.695 19.8779 26.5777 20.4324L26.5167 20.6891L24.6431 27.397C24.5151 27.8556 24.2644 28.2716 23.9174 28.6009C23.5705 28.9302 23.1401 29.1607 22.6718 29.268L22.449 29.3088L17.7786 29.9733C17.217 30.0529 16.6443 29.9535 16.1436 29.6893C15.6429 29.4251 15.2403 29.0099 14.9941 28.5039L14.9026 28.2925L14.5715 27.4287C14.197 26.4505 13.58 25.5812 12.7772 24.9008L12.4674 24.6547L10.0323 22.8425C9.90488 22.7471 9.76905 22.6632 9.62645 22.5918L9.40827 22.4952L6.0592 21.1844C5.85465 21.1046 5.67766 20.9682 5.54941 20.7914C5.42115 20.6147 5.34706 20.4051 5.33599 20.1878C5.28106 19.0975 6.08362 18.3062 7.50563 17.6024C8.60266 17.0588 10.1406 17.1041 12.1836 17.6674L12.5986 17.7882V11.0682C12.5986 8.74566 13.4805 7.28387 15.6441 7.28387V7.28538ZM15.6441 2C17.0923 1.99926 18.5183 2.35338 19.7946 3.03076C21.0709 3.70814 22.158 4.68772 22.9588 5.88207C23.7595 7.07643 24.2491 8.44842 24.3838 9.8756C24.5185 11.3028 24.2941 12.7408 23.7307 14.0612L23.9946 14.1247C23.7674 14.0629 23.5366 14.0149 23.3034 13.9812L21.3703 13.7003C21.9347 12.6504 22.1933 11.4659 22.1172 10.279C22.041 9.09215 21.6332 7.94953 20.9392 6.97869C20.2451 6.00785 19.2922 5.24697 18.1867 4.78094C17.0811 4.31492 15.8665 4.16208 14.6784 4.33949C13.4902 4.5169 12.3752 5.01757 11.4578 5.78564C10.5404 6.55371 9.85665 7.55897 9.48287 8.68925C9.10909 9.81952 9.05997 11.0304 9.341 12.1867C9.62203 13.343 10.2222 14.3992 11.0744 15.2376L11.0729 15.8643C10.1361 15.6997 9.29078 15.6589 8.52179 15.7556C7.5784 14.4583 7.01509 12.9285 6.89391 11.3347C6.77274 9.74081 7.0984 8.14479 7.83504 6.7224C8.57167 5.30002 9.69068 4.10647 11.0688 3.27323C12.4469 2.44 14.0307 1.99941 15.6456 2H15.6441Z" fill="#FE8D2A"/>
</svg>
