<svg width="49" height="48" viewBox="0 0 49 48" fill="none" xmlns="http://www.w3.org/2000/svg">
<path d="M22.558 14H26.942V9.616H22.558V14ZM24.75 24.77C22.602 24.77 20.5247 24.3987 18.518 23.656C16.514 22.9133 14.5913 21.9693 12.75 20.824V17.23C12.75 16.342 13.066 15.582 13.698 14.95C14.33 14.318 15.0913 14.0013 15.982 14H20.558V9.154C20.558 8.74067 20.7113 8.38067 21.018 8.074C21.3247 7.76733 21.684 7.614 22.096 7.614H27.404C27.8173 7.614 28.1773 7.76733 28.484 8.074C28.7907 8.38067 28.944 8.74067 28.944 9.154V14H33.52C34.408 14 35.168 14.3167 35.8 14.95C36.432 15.5833 36.7487 16.3433 36.75 17.23V20.824C34.91 21.9707 32.9873 22.9147 30.982 23.656C28.9767 24.3987 26.8993 24.77 24.75 24.77ZM15.982 42V40C15.0927 40 14.332 39.6833 13.7 39.05C13.068 38.4167 12.7513 37.6573 12.75 36.772V23.172C14.4633 24.1507 16.2347 24.9573 18.064 25.592C19.8933 26.224 21.7887 26.6093 23.75 26.748V28.77H25.75V26.748C27.7113 26.6093 29.6067 26.2233 31.436 25.59C33.2667 24.9567 35.038 24.15 36.75 23.17V36.77C36.75 37.6593 36.4333 38.42 35.8 39.052C35.1667 39.684 34.4067 40.0007 33.52 40.002V42.002H31.52V40.002H17.98V42.002L15.982 42Z" fill="#FE8D2A"/>
</svg>
