<svg width="49" height="48" viewBox="0 0 49 48" fill="none" xmlns="http://www.w3.org/2000/svg">
<path d="M13.8214 11C12.5427 11 11.3164 11.5136 10.4122 12.4279C9.50797 13.3421 9 14.5821 9 15.875V32.125C9 33.4179 9.50797 34.6579 10.4122 35.5721C11.3164 36.4864 12.5427 37 13.8214 37H34.1786C35.4573 37 36.6836 36.4864 37.5878 35.5721C38.492 34.6579 39 33.4179 39 32.125V15.875C39 14.5821 38.492 13.3421 37.5878 12.4279C36.6836 11.5136 35.4573 11 34.1786 11H13.8214ZM19.7143 19.6678C19.7144 19.4808 19.7624 19.2971 19.8535 19.1344C19.9447 18.9717 20.0759 18.8357 20.2345 18.7395C20.393 18.6433 20.5735 18.5903 20.7583 18.5855C20.9432 18.5807 21.1261 18.6244 21.2893 18.7123L29.3229 23.0445C29.494 23.137 29.6371 23.2747 29.7369 23.443C29.8367 23.6113 29.8894 23.8038 29.8894 24C29.8894 24.1962 29.8367 24.3887 29.7369 24.557C29.6371 24.7253 29.494 24.863 29.3229 24.9555L21.2904 29.2878C21.1271 29.3759 20.9441 29.4198 20.7591 29.4151C20.5741 29.4105 20.3935 29.3574 20.2347 29.2612C20.076 29.165 19.9447 29.0289 19.8535 28.8661C19.7623 28.7033 19.7143 28.5194 19.7143 28.3323V19.6678Z" fill="#FE8D2A"/>
</svg>
