<svg width="50" height="30" viewBox="0 0 50 30" fill="none" xmlns="http://www.w3.org/2000/svg">
<rect width="50" height="30" rx="4" fill="white"/>
<rect x="0.25" y="0.25" width="49.5" height="29.5" rx="3.75" stroke="#8A90A3" stroke-opacity="0.2" stroke-width="0.5"/>
<path d="M23.2936 12.4331H21.5563L22.6429 6.11453H24.3802L23.2936 12.4331Z" fill="#00579F"/>
<path d="M29.5916 6.26901C29.2489 6.14116 28.7054 6 28.0333 6C26.3177 6 25.1095 6.86036 25.1021 8.09041C25.0878 8.99794 25.9671 9.502 26.6247 9.8046C27.2969 10.1138 27.5254 10.3156 27.5254 10.5912C27.5185 11.0145 26.9822 11.2097 26.482 11.2097C25.7884 11.2097 25.4167 11.1091 24.852 10.8736L24.6232 10.7726L24.3801 12.191C24.7875 12.3656 25.5383 12.5205 26.3177 12.5273C28.1406 12.5273 29.3274 11.6802 29.3415 10.3694C29.3484 9.65013 28.8841 9.09898 27.8831 8.64861C27.2755 8.3595 26.9034 8.16456 26.9034 7.86875C26.9105 7.59983 27.2181 7.32439 27.904 7.32439C28.4688 7.3109 28.8838 7.43857 29.1982 7.56633L29.3553 7.63343L29.5916 6.26901V6.26901Z" fill="#00579F"/>
<path d="M31.9007 10.1947C32.0437 9.83167 32.5943 8.42677 32.5943 8.42677C32.5871 8.44026 32.7371 8.05708 32.8229 7.82184L32.9443 8.36629C32.9443 8.36629 33.2733 9.87875 33.3447 10.1947C33.0732 10.1947 32.2438 10.1947 31.9007 10.1947ZM34.0452 6.11453H32.7013C32.2869 6.11453 31.9721 6.22871 31.7933 6.63879L29.2127 12.433H31.0356C31.0356 12.433 31.3358 11.6532 31.4003 11.4852C31.6003 11.4852 33.3736 11.4852 33.6309 11.4852C33.6807 11.707 33.8382 12.433 33.8382 12.433H35.4468L34.0452 6.11453V6.11453Z" fill="#00579F"/>
<path d="M20.1052 6.11453L18.4038 10.4232L18.2178 9.54935C17.9033 8.54104 16.9168 7.44554 15.8159 6.90082L17.3743 12.4264H19.2115L21.9423 6.11453H20.1052V6.11453Z" fill="#00579F"/>
<path d="M16.8238 6.11453H14.0286L14 6.2422C16.1804 6.76654 17.6245 8.03046 18.2178 9.54961L17.6101 6.64567C17.5101 6.24211 17.2027 6.12784 16.8238 6.11453Z" fill="#FAA61A"/>
<g clip-path="url(#clip0_90_2585)">
<path d="M26.7232 16.0934H22.7117V23.356H26.7232V16.0934Z" fill="#FF5A00"/>
<path d="M22.9788 19.7247C22.9788 18.2492 23.6671 16.9396 24.7234 16.0934C23.946 15.4775 22.9654 15.1053 21.8958 15.1053C19.3619 15.1053 17.3116 17.1713 17.3116 19.7247C17.3116 22.2781 19.3619 24.3442 21.8958 24.3442C22.9654 24.3442 23.946 23.9719 24.7234 23.356C23.6656 22.5218 22.9788 21.2003 22.9788 19.7247Z" fill="#EB001B"/>
<path d="M32.1351 19.7247C32.1351 22.2781 30.0849 24.3442 27.551 24.3442C26.4814 24.3442 25.5008 23.9719 24.7234 23.356C25.793 22.5084 26.468 21.2003 26.468 19.7247C26.468 18.2492 25.7797 16.9396 24.7234 16.0934C25.4993 15.4775 26.4799 15.1053 27.5495 15.1053C30.0849 15.1053 32.1351 17.1848 32.1351 19.7247Z" fill="#F79E1B"/>
</g>
<defs>
<clipPath id="clip0_90_2585">
<rect width="14.8235" height="11.601" fill="white" transform="translate(17.3116 15.1053)"/>
</clipPath>
</defs>
</svg>
